<?xml version="1.0" standalone="no"?>
<!DOCTYPE svg PUBLIC "-//W3C//DTD SVG 20010904//EN"
 "http://www.w3.org/TR/2001/REC-SVG-20010904/DTD/svg10.dtd">
<svg version="1.0" xmlns="http://www.w3.org/2000/svg"
 width="2487.000000pt" height="1900.000000pt" viewBox="0 0 2487.000000 1900.000000"
 preserveAspectRatio="xMidYMid meet">

<g transform="translate(0.000000,1900.000000) scale(0.100000,-0.100000)"
fill="#000000" stroke="none">
<path d="M2346 17962 c-37 -31 -86 -92 -86 -107 0 -4 9 -3 20 0 11 3 20 2 20
-2 0 -5 6 -18 14 -29 14 -18 16 -16 36 31 20 44 23 48 30 29 11 -28 94 -49
161 -40 66 9 79 15 89 40 7 19 10 16 30 -27 23 -51 32 -52 56 -6 20 40 12 61
-43 106 l-45 37 -120 1 -121 1 -41 -34z"/>
<path d="M2748 17847 c15 -16 19 -27 12 -35 -7 -9 -7 -9 2 -2 13 11 37 -15 38
-42 0 -18 11 -23 23 -12 7 8 -74 114 -87 114 -5 0 0 -10 12 -23z"/>
<path d="M2415 17830 c3 -5 13 -10 21 -10 8 0 12 5 9 10 -3 6 -13 10 -21 10
-8 0 -12 -4 -9 -10z"/>
<path d="M2370 17817 c0 -7 13 -26 29 -41 16 -15 36 -46 46 -69 25 -62 30 -70
43 -75 7 -2 12 6 12 17 0 12 -4 21 -10 21 -5 0 -10 3 -10 8 0 4 11 7 25 7 26
0 33 -9 15 -20 -15 -9 -12 -35 5 -35 8 0 17 12 21 28 9 36 48 103 73 124 19
16 31 55 14 46 -101 -51 -120 -57 -152 -48 -18 5 -48 18 -68 30 -40 24 -43 24
-43 7z"/>
<path d="M2278 17798 c-35 -55 -48 -146 -28 -208 8 -25 8 -25 9 5 1 17 8 41
17 55 11 19 14 20 9 5 -18 -70 -2 -148 47 -225 l28 -45 -5 50 c-3 28 -2 64 3
80 8 27 9 24 15 -32 4 -35 14 -79 22 -99 19 -45 20 -94 2 -94 -7 0 -37 15 -67
33 -60 35 -122 110 -144 172 -8 22 -15 33 -15 25 -2 -55 83 -165 164 -211 57
-33 82 -36 87 -12 2 11 16 -5 41 -45 21 -34 40 -62 42 -62 3 0 17 18 31 40 15
22 34 40 44 40 37 0 141 63 184 111 47 52 87 140 85 187 -1 20 -3 16 -10 -15
-21 -110 -85 -194 -181 -243 -87 -43 -92 -41 -57 35 18 41 33 94 38 138 l7 72
8 -47 c5 -27 5 -65 2 -85 -6 -36 -6 -37 10 -18 9 11 27 44 41 73 20 43 24 64
21 122 -2 58 -1 68 10 53 6 -9 12 -27 12 -41 0 -13 4 -20 10 -17 6 3 10 34 10
68 -1 83 -47 186 -64 142 -3 -8 -16 -15 -28 -15 -37 0 -48 -13 -92 -101 -38
-78 -43 -84 -74 -87 -43 -4 -56 8 -78 69 -20 56 -70 122 -88 116 -6 -3 -20 4
-32 15 -21 19 -21 19 -36 -4z"/>
<path d="M2199 17800 c-2 -16 -8 -38 -14 -55 l-7 -20 13 20 c7 11 17 23 23 27
8 5 7 11 -2 20 -6 6 -12 10 -13 8z"/>
<path d="M3257 17753 c-4 -3 -7 -64 -7 -135 l0 -128 25 0 c23 0 25 3 25 49 0
30 5 53 14 61 12 10 21 1 53 -49 32 -51 42 -61 66 -61 l29 0 -23 38 c-13 20
-33 53 -46 72 -13 19 -23 41 -23 48 0 7 21 35 46 62 l47 50 -29 0 c-23 0 -40
-12 -81 -57 l-52 -58 -1 58 c0 48 -3 57 -18 57 -10 0 -22 -3 -25 -7z"/>
<path d="M3920 17625 l0 -135 25 0 25 0 0 135 0 135 -25 0 -25 0 0 -135z"/>
<path d="M4020 17625 l0 -135 25 0 25 0 0 135 0 135 -25 0 -25 0 0 -135z"/>
<path d="M2166 17698 c-3 -13 -5 -54 -4 -93 1 -57 2 -61 5 -21 l4 49 32 -29
32 -29 -34 37 c-29 32 -33 41 -27 72 8 40 2 49 -8 14z"/>
<path d="M2835 17669 c14 -65 23 -75 20 -24 -2 27 -9 51 -15 53 -9 3 -10 -5
-5 -29z"/>
<path d="M3474 17663 c3 -10 19 -52 34 -93 26 -70 30 -75 59 -78 30 -3 31 -2
62 83 37 102 37 107 9 103 -16 -2 -26 -17 -42 -65 -12 -34 -24 -64 -27 -67 -3
-3 -15 26 -28 64 -20 62 -25 70 -47 70 -20 0 -24 -4 -20 -17z"/>
<path d="M3723 17665 c-47 -33 -47 -125 1 -164 28 -23 91 -19 120 8 14 14 26
28 26 33 0 14 -43 9 -61 -8 -21 -19 -55 -11 -69 17 -10 18 -7 19 65 19 74 0
75 0 75 26 0 40 -50 84 -97 84 -21 0 -48 -7 -60 -15z m95 -37 c22 -22 13 -28
-38 -28 -48 0 -50 1 -40 20 12 23 59 27 78 8z"/>
<path d="M6312 17290 c-12 -5 -27 -21 -34 -35 -18 -40 3 -71 69 -102 67 -32
82 -65 39 -84 -20 -10 -30 -9 -51 5 -14 9 -25 21 -25 26 0 6 -9 10 -20 10 -29
0 -25 -34 6 -59 36 -28 102 -28 132 -1 27 26 29 80 5 102 -10 9 -39 25 -65 36
-53 23 -64 53 -28 72 21 11 60 -2 60 -20 0 -6 11 -10 25 -10 32 0 32 14 0 45
-25 26 -70 32 -113 15z"/>
<path d="M6505 17290 c-4 -6 -1 -17 5 -25 16 -19 52 -2 44 20 -7 17 -40 20
-49 5z"/>
<path d="M7200 17165 l0 -135 25 0 25 0 0 135 0 135 -25 0 -25 0 0 -135z"/>
<path d="M7684 17289 c-3 -6 0 -17 8 -25 12 -12 17 -12 32 -1 11 8 16 19 12
25 -9 15 -43 15 -52 1z"/>
<path d="M15038 17285 c-49 -27 -73 -96 -57 -161 16 -61 47 -86 114 -92 53 -4
56 -3 92 34 37 38 37 39 15 42 -14 2 -33 -5 -46 -17 -14 -13 -36 -21 -58 -21
-48 0 -78 36 -78 95 0 60 29 95 81 95 28 0 42 -6 51 -20 14 -22 58 -27 58 -7
0 49 -116 84 -172 52z"/>
<path d="M16530 17298 c0 -2 22 -61 48 -133 46 -125 49 -130 76 -130 27 0 30
5 72 119 48 131 51 146 29 146 -17 0 -33 -31 -71 -143 -15 -43 -30 -75 -33
-71 -3 3 -22 51 -41 107 -29 85 -39 103 -57 105 -13 2 -23 2 -23 0z"/>
<path d="M16815 17290 c-4 -7 -3 -16 3 -22 14 -14 47 -6 47 12 0 18 -40 26
-50 10z"/>
<path d="M7544 17245 c-3 -14 -12 -25 -20 -25 -8 0 -14 -9 -14 -20 0 -11 7
-20 15 -20 12 0 15 -13 15 -55 0 -62 22 -95 65 -95 18 0 25 5 25 20 0 13 -7
20 -20 20 -22 0 -34 31 -28 76 2 21 10 30 28 34 14 3 25 12 25 20 0 8 -11 17
-25 20 -16 4 -26 14 -28 28 -5 30 -30 28 -38 -3z"/>
<path d="M6510 17125 c0 -88 1 -95 20 -95 19 0 20 7 20 95 0 88 -1 95 -20 95
-19 0 -20 -7 -20 -95z"/>
<path d="M6610 17125 c0 -88 1 -95 20 -95 18 0 20 7 20 63 0 51 4 68 20 82 17
15 24 16 45 7 23 -11 25 -17 25 -82 0 -63 2 -70 20 -70 18 0 20 7 20 56 0 82
27 117 71 94 16 -9 19 -22 19 -80 0 -63 2 -70 20 -70 18 0 20 7 20 78 0 64 -4
82 -18 95 -23 21 -71 22 -98 3 -17 -12 -22 -12 -39 0 -23 17 -67 18 -83 2 -9
-9 -15 -9 -24 0 -30 30 -38 14 -38 -83z"/>
<path d="M6970 17142 c0 -64 4 -82 18 -95 23 -21 75 -22 92 -2 7 8 16 15 21
15 5 0 9 -7 9 -15 0 -8 7 -15 15 -15 12 0 15 17 15 96 0 86 -2 95 -17 92 -14
-3 -19 -15 -21 -64 -4 -75 -26 -104 -67 -86 -23 11 -25 17 -25 82 0 63 -2 70
-20 70 -18 0 -20 -7 -20 -78z"/>
<path d="M7322 17193 l-27 -28 23 -3 c12 -2 29 4 38 12 18 19 45 21 62 4 24
-24 13 -38 -31 -38 -23 0 -53 -7 -65 -16 -26 -18 -29 -56 -6 -78 20 -21 73
-20 96 0 16 16 18 16 24 0 3 -9 12 -16 20 -16 11 0 14 18 14 75 0 91 -17 115
-80 115 -31 0 -47 -6 -68 -27z m102 -81 c8 -14 -23 -52 -43 -52 -18 0 -41 18
-41 32 0 19 74 36 84 20z"/>
<path d="M7690 17125 c0 -88 1 -95 20 -95 19 0 20 7 20 95 0 88 -1 95 -20 95
-19 0 -20 -7 -20 -95z"/>
<path d="M7813 17196 c-23 -20 -28 -32 -28 -71 0 -39 5 -51 28 -71 40 -34 90
-32 128 5 86 86 -36 216 -128 137z m110 -43 c7 -16 7 -33 1 -50 -21 -59 -94
-42 -94 22 0 61 68 82 93 28z"/>
<path d="M8020 17125 c0 -86 2 -95 19 -95 16 0 19 10 23 66 3 50 9 70 23 80
47 35 75 4 75 -82 0 -57 2 -64 20 -64 18 0 20 7 20 75 0 62 -4 79 -20 95 -24
24 -67 26 -98 4 -20 -14 -22 -14 -22 0 0 9 -9 16 -20 16 -19 0 -20 -7 -20 -95z"/>
<path d="M15292 17204 c-27 -19 -29 -44 -2 -44 11 0 20 4 20 10 0 16 49 23 65
10 26 -22 18 -40 -19 -40 -78 0 -120 -47 -81 -90 22 -24 77 -27 95 -5 7 8 16
15 21 15 5 0 9 -7 9 -15 0 -8 7 -15 15 -15 12 0 15 15 15 79 0 71 -2 82 -22
95 -12 9 -38 16 -58 16 -20 0 -46 -7 -58 -16z m93 -95 c9 -14 -24 -49 -45 -49
-22 0 -41 22 -32 36 14 22 66 31 77 13z"/>
<path d="M15490 17125 c0 -88 1 -95 20 -95 18 0 20 7 20 58 0 85 35 126 74 86
11 -11 16 -35 16 -80 0 -57 2 -64 20 -64 17 0 20 7 20 49 0 63 13 97 40 106
37 12 50 -11 50 -86 0 -68 0 -69 26 -69 l27 0 -5 75 c-4 53 -10 81 -23 95 -22
24 -71 26 -102 5 -18 -13 -22 -13 -33 0 -15 18 -71 20 -88 3 -9 -9 -15 -9 -24
0 -30 30 -38 14 -38 -83z"/>
<path d="M15883 17205 c-34 -24 -47 -76 -29 -118 17 -41 41 -57 88 -57 33 0
78 29 78 50 0 15 -28 12 -56 -6 -31 -21 -74 -6 -74 26 0 18 6 20 70 20 67 0
70 1 70 24 0 13 -12 35 -26 50 -31 30 -86 35 -121 11z m89 -32 c29 -26 22 -33
-32 -33 -53 0 -68 18 -32 39 25 15 43 13 64 -6z"/>
<path d="M16080 17125 c0 -88 1 -95 20 -95 18 0 20 7 20 55 0 57 22 95 55 95
8 0 15 9 15 20 0 24 -22 26 -40 5 -7 -8 -16 -15 -21 -15 -5 0 -9 7 -9 15 0 8
-9 15 -20 15 -19 0 -20 -7 -20 -95z"/>
<path d="M16252 17193 l-27 -28 23 -3 c12 -2 29 4 38 12 18 19 45 21 62 4 24
-24 13 -38 -31 -38 -23 0 -53 -7 -65 -16 -28 -20 -30 -69 -3 -84 29 -15 77
-12 92 6 11 14 13 14 21 0 5 -9 16 -16 23 -16 12 0 15 16 15 75 0 91 -17 115
-80 115 -31 0 -47 -6 -68 -27z m102 -81 c8 -14 -23 -52 -43 -52 -18 0 -41 18
-41 32 0 19 74 36 84 20z"/>
<path d="M16820 17125 c0 -88 1 -95 20 -95 19 0 20 7 20 95 0 88 -1 95 -20 95
-19 0 -20 -7 -20 -95z"/>
<path d="M16957 17209 c-27 -16 -48 -72 -41 -109 14 -66 107 -95 152 -47 12
13 22 26 22 30 0 13 -34 7 -52 -10 -25 -22 -72 -7 -76 25 -3 21 0 22 67 22 69
0 71 1 71 25 0 40 -42 75 -87 75 -21 0 -46 -5 -56 -11z m87 -35 c26 -26 18
-34 -34 -34 -37 0 -50 4 -50 15 0 32 58 45 84 19z"/>
<path d="M17130 17209 c0 -6 12 -49 26 -96 23 -74 28 -84 47 -81 18 2 26 16
41 71 11 37 22 67 26 67 3 0 14 -31 24 -70 15 -60 21 -70 40 -70 20 0 26 11
49 89 32 107 32 101 8 101 -15 0 -22 -12 -31 -52 -7 -29 -16 -60 -21 -68 -9
-17 -9 -17 -32 65 -12 42 -18 50 -37 50 -20 0 -27 -10 -45 -64 -12 -36 -24
-61 -27 -55 -3 5 -11 35 -18 67 -10 44 -17 57 -32 57 -10 0 -18 -5 -18 -11z"/>
<path d="M14682 15968 c2 -447 6 -572 15 -571 7 2 89 3 183 4 93 0 172 5 175
9 3 5 -4 14 -15 20 -27 15 -25 21 17 48 l36 23 136 -16 c149 -17 169 -21 191
-40 20 -17 82 -23 955 -95 166 -14 254 -50 387 -157 265 -215 565 -671 714
-1088 31 -88 32 -96 23 -161 -5 -38 -14 -70 -19 -72 -6 -2 -10 -14 -10 -26 0
-12 -7 -31 -15 -42 -8 -10 -15 -26 -15 -34 0 -8 -7 -28 -15 -44 -8 -15 -15
-35 -15 -43 0 -8 -5 -11 -11 -8 -6 4 -13 -2 -16 -14 -3 -12 -12 -21 -19 -21
-8 0 -14 -7 -14 -15 0 -8 -7 -15 -16 -15 -14 0 -16 -9 -11 -62 4 -40 3 -54 -3
-38 -8 24 -8 24 -9 2 -1 -12 -7 -25 -15 -28 -10 -4 -13 -17 -10 -42 3 -29 2
-32 -5 -17 -8 17 -10 16 -10 -12 -1 -17 -5 -35 -11 -38 -5 -3 -10 -33 -10 -66
0 -56 -1 -59 -24 -59 -19 0 -26 -7 -31 -32 -5 -21 -4 -33 4 -36 14 -5 15 -42
1 -42 -5 0 -10 -9 -10 -20 0 -10 -8 -24 -17 -29 -11 -7 -14 -14 -8 -18 13 -10
15 -306 2 -314 -14 -10 -13 -109 2 -118 8 -6 10 -20 6 -44 -6 -29 -12 -36 -36
-39 -26 -4 -31 0 -49 41 -12 25 -27 57 -35 71 -8 14 -24 45 -35 70 -23 51 -51
103 -59 110 -12 10 -31 50 -31 65 0 8 -4 15 -10 15 -5 0 -10 8 -10 18 0 10 -7
27 -15 38 -14 17 -15 15 -9 -31 4 -27 15 -63 25 -80 11 -16 19 -37 19 -46 0
-8 8 -33 19 -55 10 -21 24 -69 31 -106 7 -41 17 -68 25 -68 8 0 14 -33 18
-112 10 -173 9 -198 -8 -198 -8 0 -15 -9 -15 -20 0 -11 5 -20 10 -20 14 0 12
-38 -2 -42 -8 -3 -12 -25 -11 -61 1 -49 -1 -57 -17 -57 -19 0 -30 -26 -30 -71
0 -23 -6 -28 -35 -33 -26 -5 -35 -12 -35 -26 0 -17 -7 -20 -40 -20 -29 0 -40
-4 -40 -15 0 -8 -9 -15 -20 -15 -15 0 -20 -7 -20 -25 0 -20 -5 -25 -25 -25
-18 0 -25 -5 -25 -20 0 -11 -7 -20 -15 -20 -8 0 -15 -9 -15 -19 0 -22 -20 -32
-48 -25 -12 4 -22 0 -25 -10 -5 -12 -20 -16 -61 -16 -49 0 -55 -2 -58 -22 -2
-15 -11 -24 -25 -26 -13 -2 -23 -10 -23 -18 0 -8 -9 -14 -20 -14 -13 0 -20 -7
-20 -20 0 -18 -7 -20 -55 -20 -57 0 -70 -12 -37 -36 14 -10 7 -12 -45 -7 -59
5 -63 5 -63 -16 0 -18 -6 -21 -40 -21 -36 0 -40 -2 -40 -25 0 -15 -6 -25 -14
-25 -7 0 -19 -7 -26 -15 -7 -8 -28 -15 -46 -15 -24 0 -34 -5 -34 -15 0 -11
-11 -15 -39 -15 -35 0 -39 -3 -44 -30 -4 -18 -13 -30 -22 -30 -8 0 -15 -8 -15
-17 0 -10 -6 -41 -12 -70 -11 -48 -15 -53 -40 -53 -18 0 -28 -5 -28 -15 0 -8
-6 -15 -14 -15 -9 0 -17 -15 -21 -40 -5 -30 -11 -40 -26 -40 -14 0 -19 -7 -19
-25 0 -22 -4 -25 -40 -25 -32 0 -40 -4 -40 -18 0 -20 -42 -62 -62 -62 -9 0 -9
-3 0 -12 10 -10 15 -10 21 1 5 8 18 12 30 8 12 -3 43 5 72 19 28 14 86 36 129
50 43 13 102 35 132 48 29 13 69 27 88 31 35 7 89 28 125 48 11 6 38 19 60 30
105 49 205 103 205 109 0 5 5 8 11 8 6 0 61 24 123 53 61 30 123 57 139 60 15
4 27 11 27 16 0 12 50 37 90 46 16 4 30 10 30 15 0 4 26 16 58 26 59 18 85 29
137 57 17 9 41 22 55 28 14 6 34 16 45 22 38 20 70 36 115 56 25 11 74 37 110
57 36 20 80 45 99 55 19 10 37 23 40 28 8 12 23 14 99 12 55 -1 62 -3 62 -21
0 -17 7 -20 40 -20 l40 0 0 -76 c0 -67 -2 -76 -20 -81 -17 -5 -20 -14 -20 -64
0 -52 -2 -59 -20 -59 -17 0 -20 -7 -20 -40 0 -33 -3 -40 -20 -40 -11 0 -20 -7
-20 -15 0 -8 -9 -15 -20 -15 -13 0 -20 -7 -20 -20 0 -13 -7 -20 -20 -20 -11 0
-20 -7 -20 -15 0 -8 -9 -15 -20 -15 -17 0 -20 -7 -20 -40 l0 -40 -40 0 c-36 0
-40 -2 -40 -25 0 -23 -4 -25 -45 -25 -33 0 -45 -4 -45 -15 0 -8 -14 -17 -35
-21 -20 -3 -35 -12 -35 -20 0 -8 -10 -14 -25 -14 -22 0 -25 -4 -25 -40 0 -33
3 -40 20 -40 13 0 20 7 20 20 0 11 4 20 9 20 4 0 8 -24 8 -52 -1 -31 6 -67 16
-87 9 -19 17 -42 17 -52 0 -30 -36 -10 -56 32 -11 21 -22 39 -25 39 -9 0 -39
75 -39 96 0 8 -11 26 -25 40 -14 14 -25 30 -25 37 0 7 -8 20 -17 29 -25 23
-43 46 -43 54 0 14 -65 93 -77 94 -7 0 -13 5 -13 10 0 6 -4 10 -10 10 -5 0
-10 -9 -10 -20 0 -28 23 -110 31 -110 4 0 13 -15 20 -32 7 -18 24 -48 36 -67
31 -46 29 -61 -7 -61 -23 0 -30 -4 -30 -20 0 -18 -7 -20 -60 -20 -54 0 -60 -2
-60 -21 0 -20 -4 -21 -57 -15 -35 3 -50 2 -38 -3 12 -5 -11 -6 -57 -3 -74 4
-76 4 -80 -19 -2 -20 -8 -24 -35 -23 -26 2 -33 -2 -33 -17 0 -16 -8 -19 -50
-19 -43 0 -50 3 -50 20 0 11 -4 20 -10 20 -5 0 -10 -9 -10 -20 0 -17 -7 -20
-45 -20 -33 0 -45 -4 -45 -15 0 -11 -11 -15 -40 -15 -25 0 -40 -5 -40 -12 0
-13 -44 -38 -67 -38 -7 0 -13 -4 -13 -10 0 -5 -7 -10 -15 -10 -9 0 -18 -6 -21
-14 -3 -7 -23 -19 -45 -26 -21 -7 -39 -17 -39 -21 0 -4 -19 -10 -42 -12 -24
-2 1450 -4 3275 -5 l3317 -2 0 2895 0 2896 -754 -3 c-415 -2 -758 -6 -761 -10
-4 -4 15 -96 43 -205 135 -530 211 -821 280 -1083 17 -63 42 -158 56 -210 13
-52 28 -102 31 -111 5 -12 -11 -30 -57 -65 -260 -197 -395 -351 -498 -567 -46
-95 -100 -257 -100 -297 0 -26 -15 -34 -140 -75 -63 -20 -124 -45 -134 -55
-19 -19 -19 -19 22 -36 35 -13 42 -21 42 -43 0 -15 -8 -33 -18 -42 -10 -8 -24
-41 -32 -72 -7 -31 -17 -57 -22 -57 -5 0 -8 -8 -7 -17 4 -26 -10 -73 -21 -73
-5 0 -7 6 -5 13 3 6 -4 23 -15 37 l-19 25 -47 -17 -46 -16 33 34 c37 38 26 44
-34 19 -48 -20 -53 -40 -20 -84 15 -20 31 -37 35 -39 4 -2 8 -12 8 -21 0 -10
9 -30 20 -44 l20 -25 -37 -36 c-21 -20 -41 -36 -45 -36 -5 0 -8 -6 -8 -12 0
-16 -104 -50 -126 -41 -13 5 -16 3 -11 -10 4 -11 1 -17 -7 -17 -8 0 -16 -4
-18 -9 -7 -20 -59 3 -111 50 -62 55 -77 60 -77 24 0 -15 -6 -25 -14 -25 -14 0
-26 -42 -26 -91 0 -19 -5 -29 -15 -29 -8 0 -15 -9 -15 -20 0 -11 -4 -20 -10
-20 -5 0 -10 -7 -10 -15 0 -8 -9 -15 -20 -15 -11 0 -20 -4 -20 -9 0 -17 -54
-20 -67 -3 -92 115 -183 265 -183 301 0 10 -3 12 -8 6 -11 -15 -80 -45 -105
-45 -20 0 -166 -69 -287 -136 -25 -14 -53 -23 -62 -20 -12 3 -19 -4 -23 -25
-4 -16 -3 -34 0 -40 10 -15 56 -5 121 26 98 46 249 96 298 98 l48 2 13 -41 c6
-22 28 -72 48 -109 20 -38 35 -71 32 -73 -5 -6 -507 15 -700 29 -77 6 -264 14
-415 19 -381 12 -864 31 -867 34 -2 1 7 25 19 53 l21 50 61 7 c34 3 63 11 64
16 2 6 10 10 18 10 8 0 14 10 14 25 0 22 -4 25 -34 25 -46 0 -89 -17 -80 -32
5 -7 3 -8 -6 -3 -7 4 -16 2 -21 -6 -5 -9 -9 34 -9 107 0 66 3 123 6 126 3 3
27 -1 55 -10 43 -14 59 -14 127 -3 42 7 95 21 117 30 22 10 87 30 145 46 69
19 113 37 128 52 23 23 25 23 49 7 21 -13 39 -15 94 -10 66 7 69 6 69 -14 0
-12 -4 -19 -9 -16 -14 9 -22 -24 -11 -42 8 -14 10 -15 11 -2 2 8 5 -14 8 -50
l6 -65 93 -3 c51 -1 91 -6 88 -10 -9 -14 10 -32 35 -33 13 0 48 2 77 6 50 8
65 18 40 28 -7 3 61 6 152 6 91 1 182 4 203 7 l37 7 0 388 0 389 -360 0 -360
0 0 -69 c0 -90 -5 -101 -44 -101 -26 -1 -28 -2 -14 -11 10 -5 26 -9 35 -7 16
3 18 -10 21 -137 4 -186 4 -185 -59 -185 -40 0 -58 6 -80 25 -16 13 -36 22
-44 19 -31 -12 -100 25 -161 88 -25 26 -27 26 -66 12 -58 -20 -142 -20 -172
-1 -14 10 -34 17 -46 17 -11 0 -20 4 -20 9 0 4 -28 11 -61 15 -34 3 -76 15
-95 26 -37 23 -33 14 -129 310 -36 113 -72 219 -79 235 -7 17 -26 59 -41 95
-134 319 -335 544 -638 715 -36 20 -47 31 -42 43 3 10 40 132 81 272 42 140
96 323 121 405 25 83 51 171 59 198 8 26 20 68 28 95 8 26 28 94 46 150 17 57
28 107 25 110 -4 4 -589 8 -1301 10 l-1294 3 2 -573z m4647 -1905 l0 -108 -15
50 c-38 134 -46 155 -58 155 -44 0 -551 -91 -554 -100 -9 -26 -22 7 -22 56 l0
54 325 0 325 0 -1 -107z m-615 -93 c4 -26 1 -41 -14 -60 l-20 -25 0 61 c0 85
21 100 34 24z m24 -154 c11 18 11 18 12 -2 0 -12 -7 -24 -15 -28 -8 -3 -15
-17 -15 -32 0 -21 4 -25 20 -21 11 3 22 1 25 -3 6 -9 -65 -33 -73 -25 -3 2 -7
37 -9 77 l-5 73 25 -29 c23 -28 25 -29 35 -10z m2132 5 c0 -11 -25 -21 -51
-21 -21 0 -26 16 -6 23 21 9 57 7 57 -2z m-1540 -281 l0 -80 -127 1 c-71 1
-117 4 -103 6 14 3 27 8 30 12 11 15 117 79 153 92 24 8 37 19 37 31 0 10 2
18 5 18 3 0 5 -36 5 -80z m-607 -77 c-7 -2 -19 -2 -25 0 -7 3 -2 5 12 5 14 0
19 -2 13 -5z m2245 -385 c11 -29 23 -61 27 -70 7 -16 -1 -18 -89 -18 -53 0
-96 3 -96 6 0 27 104 133 132 134 4 0 15 -24 26 -52z m-2708 -187 c118 -6 292
-13 385 -16 94 -4 215 -10 270 -15 55 -5 249 -10 430 -11 182 -1 318 -4 302
-6 -26 -4 -87 -53 -67 -53 6 0 10 -8 9 -17 0 -11 -3 -13 -6 -5 -6 15 -33 16
-33 1 0 -6 -7 -9 -15 -5 -8 3 -15 1 -15 -4 0 -6 -7 -10 -15 -10 -8 0 -15 -7
-15 -16 0 -9 -8 -14 -17 -13 -51 5 -85 -2 -80 -15 8 -19 -38 -27 -60 -10 -24
18 -57 18 -50 0 6 -16 -19 -30 -28 -16 -12 19 -45 10 -55 -15 -6 -15 -17 -25
-29 -25 -11 0 -21 -9 -25 -22 -5 -20 -8 -21 -19 -8 -16 20 -47 22 -47 3 0 -8
-8 -13 -17 -11 -11 2 -22 -6 -28 -19 -5 -13 -14 -23 -19 -23 -5 0 -17 -10 -27
-22 -17 -19 -19 -19 -19 -3 0 15 -4 13 -27 -9 -14 -14 -29 -24 -32 -20 -3 3 5
14 19 24 14 10 21 22 16 27 -4 4 -15 -2 -23 -14 -9 -13 -22 -23 -29 -23 -8 0
-14 -9 -14 -20 0 -11 -5 -20 -11 -20 -6 0 -8 -9 -4 -20 4 -14 2 -20 -7 -18 -8
2 -12 -5 -11 -19 2 -13 -2 -23 -8 -23 -5 0 -7 -5 -4 -10 4 -6 1 -17 -5 -25 -7
-8 -10 -26 -8 -39 3 -15 -1 -27 -14 -35 -10 -6 -18 -22 -18 -36 0 -14 -4 -25
-10 -25 -5 0 -10 -5 -10 -11 0 -5 4 -8 9 -4 14 8 25 -15 13 -27 -6 -6 -8 -16
-6 -23 3 -7 1 -16 -5 -19 -14 -9 -2 -36 14 -30 7 3 16 1 20 -5 3 -6 -1 -11 -9
-11 -9 0 -16 -6 -16 -12 0 -7 -3 -23 -6 -36 -5 -16 -3 -22 6 -20 7 2 15 -3 18
-11 3 -10 0 -12 -12 -8 -13 5 -16 2 -14 -11 2 -9 11 -15 19 -13 23 6 46 9 31
4 -8 -3 -11 -10 -9 -17 4 -9 -3 -11 -20 -8 -38 7 -20 -14 19 -23 18 -4 41 -7
52 -5 11 1 16 -3 11 -9 -3 -6 -11 -9 -16 -6 -5 4 -9 1 -9 -6 0 -8 -6 -7 -18 4
-16 15 -19 15 -30 -3 -10 -17 -10 -20 5 -20 10 0 23 -11 29 -24 9 -20 8 -27
-7 -40 -19 -16 -27 -76 -10 -76 5 0 17 -7 25 -16 15 -14 16 -14 16 0 0 9 -7
16 -15 16 -23 0 -18 27 6 33 12 3 18 10 14 16 -3 6 -4 11 -1 11 2 0 12 3 22 7
11 4 15 3 11 -4 -8 -13 9 -28 41 -37 17 -6 22 -3 22 9 0 13 6 16 23 12 19 -5
20 -4 6 6 -15 12 -15 14 2 36 10 12 22 20 27 17 5 -3 16 4 25 15 17 19 32 23
75 19 16 -1 22 4 22 18 0 11 7 23 16 26 8 3 12 10 9 16 -3 5 -1 10 4 10 14 0
14 -6 1 -31 -14 -25 -5 -24 21 2 11 11 18 27 15 35 -6 16 19 20 29 4 11 -17
25 -11 25 11 0 16 4 19 20 14 12 -4 20 -2 20 4 0 8 7 7 21 -1 17 -10 23 -10
26 0 7 18 21 15 26 -5 4 -15 6 -15 12 5 8 23 20 28 30 12 11 -17 37 -11 42 10
3 11 10 20 15 20 6 0 8 -7 4 -15 -4 -10 1 -15 14 -15 11 0 19 3 19 8 -4 22 3
24 19 5 15 -20 20 -21 42 -10 30 16 50 12 51 -11 0 -12 3 -10 10 6 5 13 7 27
4 31 -2 4 9 8 25 8 18 0 30 -6 30 -13 0 -8 -6 -11 -15 -8 -8 4 -15 1 -15 -6 0
-8 9 -10 24 -6 14 3 28 2 31 -4 4 -7 13 -7 26 0 16 9 21 7 29 -16 8 -19 7 -31
-2 -41 -10 -12 -9 -14 8 -11 15 2 18 -2 16 -20 -2 -13 3 -25 12 -28 21 -8 20
-21 -2 -28 -10 -3 -25 -18 -34 -33 -9 -16 -40 -53 -68 -83 -28 -30 -67 -72
-86 -92 -19 -21 -38 -38 -42 -38 -4 0 -24 -15 -44 -32 -54 -49 -92 -78 -103
-78 -6 0 -23 -12 -38 -26 -20 -18 -36 -25 -53 -21 -19 3 -24 1 -19 -10 3 -10
1 -13 -9 -10 -8 3 -16 1 -18 -5 -3 -8 -11 -7 -27 1 -20 11 -22 11 -13 -6 9
-16 6 -18 -27 -18 -20 0 -37 5 -38 10 -1 6 7 9 18 8 10 -2 19 2 19 7 0 6 -7
10 -15 10 -8 0 -16 8 -16 18 -1 16 -2 15 -6 -1 -6 -24 -49 -19 -47 6 2 13 -3
16 -17 12 -11 -4 -19 -2 -19 5 0 8 -9 10 -25 6 -25 -6 -25 -5 -25 53 0 54 -3
62 -31 85 -36 30 -39 31 -65 11 -25 -19 -35 -19 -27 2 5 12 2 15 -10 10 -11
-4 -17 -1 -17 8 0 22 -21 18 -27 -5 -3 -11 -12 -20 -19 -20 -8 0 -14 -4 -14
-10 0 -5 -4 -10 -10 -10 -5 0 -7 6 -4 14 3 8 1 17 -5 21 -6 3 -11 1 -11 -4 0
-6 -8 -11 -17 -10 -11 0 -13 3 -5 6 14 5 17 33 3 33 -5 0 -12 -12 -15 -26 -6
-23 -11 -26 -36 -20 -17 3 -30 2 -30 -3 0 -12 59 -20 66 -9 3 4 13 8 22 8 15
0 15 -2 2 -10 -8 -5 -11 -10 -6 -10 6 0 1 -6 -9 -14 -10 -7 -27 -11 -37 -8
-10 2 -18 -1 -18 -8 0 -7 -11 -1 -25 14 -13 14 -32 26 -41 26 -11 0 -15 6 -12
18 3 11 0 19 -8 19 -8 0 -14 -11 -14 -26 0 -19 -3 -22 -12 -13 -7 7 -20 12
-31 12 -10 0 -25 7 -33 15 -20 20 -45 20 -38 0 4 -8 17 -18 29 -21 23 -6 40
-30 27 -38 -13 -7 -52 13 -52 28 0 19 -29 48 -44 43 -6 -2 -18 3 -26 12 -8 9
-33 25 -54 36 -24 12 -50 37 -65 62 -14 23 -31 43 -38 43 -7 0 -18 10 -24 22
-7 13 -42 51 -78 85 -137 130 -151 145 -151 158 0 7 5 15 11 17 9 3 9 10 0 26
-9 17 -9 22 1 23 10 0 10 2 1 6 -7 2 -13 11 -13 19 0 8 -4 14 -10 14 -5 0 -10
5 -10 11 0 6 9 8 22 3 19 -6 21 -4 12 7 -6 8 -12 34 -13 58 0 25 -6 48 -12 52
-7 4 -9 14 -6 23 4 10 1 16 -8 16 -19 0 -19 4 1 42 15 28 15 30 0 25 -9 -4
-15 -3 -15 1 4 25 -3 52 -11 47 -5 -3 -10 1 -10 9 0 9 -4 16 -9 16 -5 0 -12
14 -16 31 -4 17 -12 32 -19 35 -7 3 -19 20 -26 39 -8 19 -17 35 -22 35 -15 0
-44 36 -40 50 3 9 -1 11 -12 7 -9 -4 -16 -3 -16 1 0 4 -14 23 -32 42 -18 19
-34 44 -36 55 -4 24 18 96 27 90 4 -2 13 0 21 6 19 11 179 11 450 0z m1513
-58 c-7 -2 -21 -2 -30 0 -10 3 -4 5 12 5 17 0 24 -2 18 -5z m107 -2 c0 -5 -8
-11 -17 -14 -10 -3 -51 -19 -92 -36 -40 -17 -80 -31 -90 -30 -15 1 28 23 109
58 24 10 29 16 19 22 -9 6 1 9 29 9 23 0 42 -4 42 -9z m1137 -31 c106 -6 148
-13 168 -26 18 -12 53 -19 108 -22 81 -4 191 -35 245 -70 l24 -15 -24 -13
c-12 -6 -59 -20 -102 -29 -98 -22 -192 -16 -361 21 -94 21 -149 27 -250 28
-109 1 -137 4 -170 21 -33 16 -41 26 -43 53 -2 18 -9 32 -17 32 -7 0 -15 7
-19 15 -5 13 16 15 147 15 84 0 216 -5 294 -10z m-1362 -60 c-3 -5 -18 -10
-33 -9 l-27 1 25 8 c35 11 42 11 35 0z m-826 -476 c-6 -7 -15 -11 -20 -8 -5 3
-3 11 4 18 16 18 31 8 16 -10z m-779 -8 c0 -3 -4 -8 -10 -11 -5 -3 -10 -1 -10
4 0 6 5 11 10 11 6 0 10 -2 10 -4z m780 -26 c0 -5 -4 -10 -9 -10 -6 0 -13 5
-16 10 -3 6 1 10 9 10 9 0 16 -4 16 -10z m620 -189 c0 -6 -4 -13 -10 -16 -5
-3 -10 1 -10 9 0 9 5 16 10 16 6 0 10 -4 10 -9z m-2046 -33 c-9 -30 -10 -32
-29 -25 -20 8 -19 34 3 40 31 8 33 7 26 -15z m1213 -384 c-3 -3 -12 -4 -19 -1
-8 3 -5 6 6 6 11 1 17 -2 13 -5z m263 2 c0 -3 -4 -8 -10 -11 -5 -3 -10 -1 -10
4 0 6 5 11 10 11 6 0 10 -2 10 -4z m-194 -13 c-10 -11 -36 -12 -36 -2 0 5 10
9 22 9 12 0 18 -3 14 -7z m144 -13 c0 -5 -5 -10 -11 -10 -5 0 -7 5 -4 10 3 6
8 10 11 10 2 0 4 -4 4 -10z m-1695 -580 c3 -5 14 -10 23 -10 10 0 22 -8 28
-18 16 -24 27 -79 19 -92 -7 -12 -65 38 -65 56 0 7 -7 14 -15 18 -8 3 -15 17
-15 31 0 25 14 34 25 15z m99 -146 c8 -29 3 -39 -13 -29 -13 8 -15 55 -2 55 5
0 12 -12 15 -26z"/>
<path d="M19585 12830 c3 -5 8 -10 11 -10 2 0 4 5 4 10 0 6 -5 10 -11 10 -5 0
-7 -4 -4 -10z"/>
<path d="M18735 12130 c3 -5 8 -10 11 -10 2 0 4 5 4 10 0 6 -5 10 -11 10 -5 0
-7 -4 -4 -10z"/>
<path d="M18736 11897 c3 -10 9 -15 12 -12 3 3 0 11 -7 18 -10 9 -11 8 -5 -6z"/>
<path d="M18755 11871 c-3 -6 -1 -11 4 -11 6 0 11 -8 11 -17 0 -15 -2 -16 -10
-3 -7 10 -10 11 -10 2 0 -7 7 -15 15 -18 8 -4 15 -13 15 -21 0 -8 6 -13 13
-10 6 2 12 10 12 18 0 8 3 16 7 19 3 3 8 14 10 25 2 16 -3 21 -29 23 -17 2
-34 -2 -38 -7z"/>
<path d="M18688 11776 c-3 -14 -1 -26 4 -26 14 0 22 30 11 41 -7 7 -12 2 -15
-15z"/>
<path d="M18747 11787 c-3 -8 1 -14 9 -14 16 0 19 13 5 21 -5 3 -11 0 -14 -7z"/>
<path d="M18893 11784 c10 -3 17 -15 17 -29 0 -17 4 -23 14 -19 23 9 3 49 -25
51 -15 1 -17 0 -6 -3z"/>
<path d="M18780 11749 l-15 -34 40 4 c24 3 32 6 18 9 -15 2 -23 12 -25 29 -3
25 -3 25 -18 -8z"/>
<path d="M18860 11700 c0 -11 5 -20 10 -20 6 0 10 9 10 20 0 11 -4 20 -10 20
-5 0 -10 -9 -10 -20z"/>
<path d="M18500 11688 c0 -4 7 -8 15 -8 8 0 15 4 15 8 0 5 -7 9 -15 9 -8 0
-15 -4 -15 -9z"/>
<path d="M18745 11690 c-8 -13 4 -32 16 -25 12 8 12 35 0 35 -6 0 -13 -4 -16
-10z"/>
<path d="M18738 11613 c7 -3 16 -2 19 1 4 3 -2 6 -13 5 -11 0 -14 -3 -6 -6z"/>
<path d="M2150 16340 c0 -7 14 -53 32 -101 26 -73 36 -89 53 -89 17 0 27 16
53 89 35 97 38 115 20 109 -7 -3 -24 -36 -38 -75 -14 -39 -29 -73 -34 -75 -5
-1 -20 30 -35 71 -14 41 -32 76 -38 79 -7 2 -13 -2 -13 -8z"/>
<path d="M2355 16340 c-8 -12 20 -24 35 -15 6 3 8 11 5 16 -8 12 -32 12 -40
-1z"/>
<path d="M2360 16220 c0 -56 3 -70 15 -70 12 0 15 14 15 70 0 56 -3 70 -15 70
-12 0 -15 -14 -15 -70z"/>
<path d="M2452 16267 c-45 -48 -17 -117 47 -117 22 0 44 6 51 15 19 22 4 31
-26 15 -18 -10 -30 -11 -42 -4 -35 23 -24 34 32 34 49 0 56 2 56 20 0 54 -79
79 -118 37z m74 -11 c26 -19 14 -28 -32 -24 -36 3 -37 4 -20 21 21 21 27 21
52 3z"/>
<path d="M2590 16286 c0 -2 9 -34 21 -71 25 -81 46 -85 67 -12 15 55 22 54 37
-6 8 -30 17 -43 31 -45 17 -2 22 6 32 45 6 26 14 58 18 71 5 16 2 22 -9 22
-10 0 -17 -13 -22 -38 -11 -65 -22 -70 -37 -16 -19 67 -43 71 -59 10 -6 -26
-15 -49 -19 -51 -5 -3 -13 18 -20 45 -7 30 -17 50 -26 50 -8 0 -14 -2 -14 -4z"/>
<path d="M8975 15647 c-10 -43 -11 -133 -3 -244 l7 -92 -62 -19 c-44 -13 -66
-26 -74 -43 -12 -23 -13 -23 -13 -3 0 12 -6 24 -14 27 -15 6 -155 -30 -173
-45 -7 -5 -17 -7 -23 -3 -6 4 -22 4 -34 1 -18 -4 -26 -15 -31 -43 -4 -21 -11
-43 -17 -50 -7 -9 -161 -12 -641 -13 -348 0 -733 -2 -857 -5 -124 -3 -381 -8
-572 -11 l-348 -6 0 -2276 0 -2276 21 -42 c12 -26 36 -53 57 -66 l37 -23 1495
-3 c822 -1 1505 0 1518 3 23 6 22 6 -12 37 -20 18 -36 35 -36 40 0 18 69 6
124 -22 83 -42 86 -41 86 29 0 50 3 59 20 64 19 5 20 14 20 122 0 82 -3 114
-11 109 -8 -5 -8 -1 0 14 13 24 11 131 -2 139 -5 3 -6 -4 -2 -16 5 -16 2 -21
-12 -20 -10 0 -13 3 -6 5 7 3 9 12 6 21 -3 8 0 19 7 23 9 6 -1 12 -30 20 -23
6 -56 21 -72 33 l-30 22 129 12 c71 7 179 26 243 42 63 17 160 42 215 56 55
14 116 29 135 35 19 6 103 26 185 46 83 19 215 51 295 70 362 88 438 106 482
116 37 9 50 9 63 -2 20 -16 23 -13 31 38 5 33 3 43 -10 48 -9 3 -16 15 -16 26
0 17 5 20 29 16 17 -2 28 -1 25 4 -3 4 2 8 10 8 14 0 15 -10 10 -68 -6 -67 4
-112 26 -112 5 0 10 47 12 105 2 58 0 105 -5 105 -13 0 -146 -38 -159 -46 -6
-4 -23 -9 -37 -10 -37 -4 -54 -9 -66 -16 -5 -3 -32 -10 -60 -14 -27 -4 -52 -9
-55 -9 -3 -1 -18 -5 -35 -9 -16 -4 -41 -11 -55 -16 -14 -5 -42 -11 -63 -15
-21 -3 -36 -9 -33 -13 2 -4 -19 -8 -48 -9 -28 -2 -60 -7 -71 -12 -11 -5 -90
-25 -175 -45 -269 -64 -341 -82 -375 -97 -11 -5 -36 -10 -55 -11 -19 -2 -34
-7 -33 -13 1 -6 -22 -9 -59 -7 -35 2 -65 -1 -71 -7 -27 -27 -226 -3 -261 31
-9 10 -35 22 -56 28 -36 10 -58 26 -48 35 2 2 17 -2 32 -10 15 -8 32 -12 37
-9 5 3 9 383 9 898 0 700 -3 895 -12 905 -11 10 -8 11 15 6 38 -10 34 9 -5 20
-20 6 -34 18 -36 29 -4 17 1 18 50 12 29 -3 58 -6 63 -6 6 0 55 3 110 6 87 5
106 3 148 -15 42 -18 47 -24 47 -51 0 -31 22 -65 34 -53 3 4 6 1 6 -5 0 -6 14
-9 38 -6 32 3 50 7 95 19 4 2 11 3 15 4 15 2 42 60 36 78 -4 13 -3 15 4 4 7
-10 15 -2 32 32 25 51 39 60 76 51 23 -6 34 -24 15 -24 -5 0 -8 -17 -8 -37 1
-25 6 -37 15 -35 7 1 31 3 53 4 22 1 43 6 47 12 4 6 28 27 54 46 46 34 78 81
78 114 0 29 -139 26 -244 -5 -49 -15 -70 -26 -73 -40 -10 -39 -54 -37 -176 7
-43 15 -59 15 -150 4 -56 -7 -145 -16 -197 -20 -52 -3 -106 -11 -120 -17 -19
-8 -35 -5 -75 13 -34 16 -68 24 -107 24 -52 0 -61 4 -111 45 -36 29 -57 40
-60 32 -3 -8 -12 -4 -28 12 -18 18 -20 22 -6 18 9 -4 17 -4 17 -1 0 8 -54 53
-65 53 -5 1 -1 -7 10 -17 18 -15 20 -26 17 -90 -4 -86 -22 -87 -22 -1 0 67 3
61 -90 138 -66 55 -86 78 -76 88 3 3 14 0 23 -8 10 -7 5 1 -11 19 -19 20 -36
30 -46 27 -10 -3 -26 6 -40 20 -18 19 -20 24 -7 19 9 -3 17 -10 17 -15 0 -5 5
-9 12 -9 6 0 0 13 -15 28 -15 15 -27 33 -27 39 0 6 27 16 60 22 63 13 81 29
94 83 8 36 -10 45 -125 64 -50 8 -101 20 -112 26 l-21 11 21 8 c12 4 80 9 150
11 l128 3 50 -34 c28 -19 52 -37 55 -41 23 -27 267 -198 310 -217 75 -33 147
-71 197 -105 52 -35 63 -35 63 1 0 49 -16 76 -81 138 -33 32 -145 143 -248
248 -265 270 -332 337 -366 365 -56 46 -104 80 -113 80 -14 0 -36 29 -28 37
10 11 96 -56 199 -156 54 -53 105 -100 113 -104 10 -6 31 -1 57 11 23 11 82
32 131 48 l89 29 21 -30 c65 -92 148 -147 252 -166 37 -7 82 -25 122 -50 35
-21 67 -39 71 -39 5 0 26 -14 47 -31 73 -58 132 -82 217 -86 63 -4 82 -1 97
12 9 9 33 18 51 21 l34 6 18 -69 c9 -37 17 -75 17 -84 0 -10 16 -31 36 -49 28
-24 43 -30 63 -26 14 3 73 12 131 20 58 8 119 18 135 23 54 15 82 5 113 -40
15 -23 31 -50 35 -60 4 -10 20 -25 37 -35 16 -9 30 -23 30 -30 0 -7 17 -20 38
-29 59 -24 64 -32 42 -56 -11 -11 -20 -31 -20 -44 0 -13 -6 -23 -12 -23 -7 0
-32 -25 -56 -55 -24 -32 -71 -74 -110 -99 -37 -25 -74 -55 -82 -68 -17 -26
-48 -115 -49 -139 -1 -16 -44 -59 -79 -78 -11 -6 -27 -17 -34 -25 -8 -7 -30
-21 -48 -31 -38 -19 -114 -92 -147 -140 -11 -16 -26 -48 -33 -70 -7 -22 -19
-50 -26 -62 -8 -13 -10 -23 -5 -23 5 0 12 -9 16 -19 8 -27 35 -34 55 -16 10 9
28 18 41 19 37 5 72 22 89 43 8 10 31 39 51 63 20 25 42 56 48 69 11 20 18 22
49 17 29 -4 43 0 71 22 40 30 121 113 121 123 0 4 9 9 20 12 23 6 26 29 6 46
-13 11 -12 17 6 47 13 22 18 43 14 59 -4 14 -2 25 4 25 5 0 10 5 10 10 0 18
43 70 57 70 16 0 54 60 47 72 -3 5 -1 7 4 6 16 -5 98 107 100 136 1 17 25 24
49 15 34 -13 88 -11 158 6 60 14 78 28 131 101 16 21 25 26 33 18 9 -8 12
-242 11 -890 0 -991 7 -905 -79 -953 l-43 -24 50 -46 c28 -25 55 -56 61 -68 7
-14 11 -110 11 -263 l0 -242 25 -29 c65 -78 31 -183 -75 -230 -46 -21 -154
-54 -225 -69 -22 -4 -77 -18 -123 -29 -46 -12 -102 -26 -125 -31 -23 -5 -107
-25 -187 -45 -80 -20 -172 -42 -205 -50 -33 -7 -105 -25 -160 -39 -55 -14
-110 -26 -122 -26 -12 0 -24 -4 -28 -9 -3 -5 -30 -13 -60 -16 -31 -4 -58 -11
-61 -16 -3 -6 804 -8 1959 -7 l1963 3 36 25 c20 13 44 38 55 55 17 29 18 114
21 2313 l2 2282 -57 0 c-32 1 -98 3 -148 5 -49 2 -394 7 -765 10 -371 3 -936
8 -1255 11 l-580 5 25 -21 c14 -12 33 -28 43 -35 32 -27 21 -67 -37 -128 -55
-59 -74 -72 -56 -38 14 26 13 81 -1 81 -7 0 -21 -11 -33 -25 -19 -22 -27 -24
-69 -19 -42 6 -45 9 -36 26 11 21 4 38 -15 38 -8 0 -19 6 -25 13 -6 8 -43 30
-84 51 -40 21 -84 46 -97 56 -24 18 -24 20 -11 70 7 28 12 53 10 55 -8 7 -214
43 -219 38 -3 -3 4 -10 14 -17 39 -22 66 -56 66 -80 0 -30 -50 -136 -64 -136
-5 0 -17 -7 -26 -15 -16 -14 -22 -13 -63 12 -42 25 -46 32 -47 66 0 28 12 55
48 110 l48 73 -22 19 c-26 23 -17 45 34 76 17 12 29 25 26 31 -3 5 3 18 15 29
19 18 25 32 22 52 0 4 3 7 9 7 5 0 10 5 10 10 0 16 -58 47 -101 54 -45 7 -119
-9 -119 -26 0 -6 -18 -48 -40 -94 -22 -46 -40 -88 -40 -94 0 -17 -14 -11 -29
12 l-14 22 -8 -22 c-7 -17 -16 -22 -44 -22 -52 0 -73 14 -68 44 5 23 2 25 -50
31 -30 4 -63 5 -73 3 -32 -6 -49 -56 -49 -143 1 -97 12 -151 37 -187 20 -29
17 -48 -6 -48 -8 0 -19 -7 -26 -15 -7 -9 -19 -14 -27 -11 -17 7 -76 -20 -134
-61 -32 -22 -49 -29 -56 -22 -6 6 -23 9 -39 7 -21 -2 -30 -10 -36 -33 -5 -16
-30 -70 -56 -120 -34 -65 -52 -89 -64 -87 -9 1 -19 -2 -23 -8 -4 -6 -17 3 -31
20 -14 16 -23 34 -19 40 3 5 -7 22 -24 38 -21 19 -28 31 -21 41 7 12 16 12 63
-1 51 -15 56 -15 69 1 8 10 14 29 12 44 -2 19 1 24 12 20 17 -6 18 8 2 26 -11
11 -10 13 3 8 20 -7 31 32 23 83 l-6 33 49 -8 c26 -4 60 -9 76 -10 15 -1 29
-4 32 -7 3 -2 18 -3 34 0 22 3 33 12 39 31 10 28 14 24 -79 85 -24 16 -46 32
-49 35 -3 4 -21 19 -40 35 -19 16 -37 38 -40 50 -9 33 -123 88 -186 89 -44 1
-50 4 -46 19 7 29 -5 21 -29 -19 -13 -21 -25 -40 -28 -43 -4 -3 -13 -18 -21
-34 -26 -50 -18 -54 -166 80 -43 39 -110 98 -149 130 -38 33 -76 66 -85 74 -9
8 -39 35 -68 59 -28 24 -50 46 -48 50 3 4 -6 8 -19 9 -18 1 -24 -5 -30 -31z
m1710 -357 c3 -5 1 -10 -4 -10 -6 0 -11 5 -11 10 0 6 2 10 4 10 3 0 8 -4 11
-10z m-871 -99 c4 -5 2 -21 -4 -35 -12 -32 -35 -35 -25 -3 3 12 7 28 7 35 1
14 14 16 22 3z m-957 -77 c-3 -3 -12 -4 -19 -1 -8 3 -5 6 6 6 11 1 17 -2 13
-5z m947 -26 c9 -33 8 -38 -9 -38 -21 0 -37 34 -23 48 17 17 25 15 32 -10z
m-114 -18 c9 -6 11 -13 5 -17 -10 -8 -16 -16 -57 -85 -13 -21 -28 -38 -35 -38
-27 0 -81 -34 -97 -61 -9 -16 -24 -29 -32 -29 -22 0 -17 13 17 46 17 16 46 55
66 87 19 31 51 69 71 82 41 28 42 28 62 15z m-700 -25 c0 -8 -2 -15 -4 -15 -2
0 -6 7 -10 15 -3 8 -1 15 4 15 6 0 10 -7 10 -15z m-3 -102 c-3 -10 -5 -4 -5
12 0 17 2 24 5 18 2 -7 2 -21 0 -30z m2471 -43 c4 0 23 4 42 10 74 21 168 -27
207 -108 28 -59 50 -179 38 -208 -4 -11 -9 -14 -12 -7 -3 8 -13 9 -35 2 -17
-5 -36 -5 -42 0 -6 4 -27 14 -46 21 -56 21 -72 39 -58 64 18 31 18 47 3 76
-13 25 -12 100 1 121 5 9 -21 19 -52 19 -31 0 -57 -13 -113 -59 -25 -20 -42
-29 -39 -21 3 8 16 43 28 78 l23 63 24 -25 c13 -14 27 -26 31 -26z m-2581 -32
c-3 -7 -5 -2 -5 12 0 14 2 19 5 13 2 -7 2 -19 0 -25z m1323 -123 c79 -66 148
-125 154 -130 12 -11 200 -170 361 -305 89 -75 193 -163 265 -224 14 -12 84
-70 155 -130 72 -60 136 -114 143 -120 10 -10 7 -25 -11 -79 -23 -66 -26 -69
-102 -119 l-78 -51 -31 35 c-17 20 -48 55 -68 79 -44 50 -50 89 -15 104 12 6
22 17 22 25 0 8 -10 16 -22 18 -15 2 -23 -2 -23 -11 0 -8 -14 -17 -32 -21 -18
-4 -52 -16 -75 -27 -52 -25 -95 -22 -99 6 -9 73 -19 102 -43 122 l-26 22 33 1
c38 0 40 10 11 50 -19 24 -27 28 -53 23 -17 -3 -48 -19 -68 -35 -37 -29 -38
-29 -105 -18 -37 6 -85 14 -105 17 -22 3 -38 11 -38 18 0 20 54 55 78 50 44
-8 142 -8 141 1 -1 5 -9 19 -18 30 -16 20 -25 21 -151 19 -204 -3 -186 2 -199
-51 -8 -31 -18 -48 -31 -51 -10 -3 -21 -11 -24 -19 -3 -8 -15 -14 -26 -14 -15
0 -20 7 -20 24 0 20 -9 28 -47 42 -27 10 -66 30 -88 45 -22 14 -57 34 -77 44
-37 17 -46 37 -29 64 7 11 20 9 72 -9 35 -12 73 -26 84 -31 65 -27 100 -39
116 -39 10 0 23 -8 28 -17 7 -12 10 -13 11 -5 0 8 -9 27 -21 43 -16 23 -39 34
-107 55 -48 14 -112 34 -143 45 -31 10 -58 19 -60 19 -3 0 -13 -16 -23 -35
-13 -24 -26 -35 -42 -35 -20 0 -26 -9 -39 -55 -9 -30 -20 -55 -25 -55 -8 0
-80 116 -80 130 0 4 7 11 16 14 25 10 94 7 94 -4 0 -21 19 -8 29 20 9 27 14
30 53 30 38 0 155 -31 288 -78 24 -8 56 -27 70 -42 l25 -28 110 9 c213 17 257
18 281 9 30 -12 32 3 2 17 -47 22 -108 34 -125 24 -14 -7 -26 -2 -54 24 -27
24 -55 37 -110 49 -40 10 -79 21 -88 25 -19 11 -39 -8 -33 -31 4 -17 1 -17
-40 2 -24 10 -71 26 -103 35 -32 8 -63 19 -68 24 -26 26 -49 119 -47 193 1 52
-5 102 -19 152 -11 41 -19 81 -17 88 3 7 7 25 10 40 5 23 12 27 49 30 37 3 44
7 62 41 11 20 25 36 32 35 6 -2 75 -57 153 -123z m-1213 -7 c-2 -24 -4 -7 -4
37 0 44 2 63 4 43 2 -21 2 -57 0 -80z m-449 45 c-2 -21 -9 -29 -28 -31 -14 -2
-47 -11 -75 -21 -73 -27 -119 -41 -137 -41 -8 0 -41 -8 -74 -18 -32 -11 -86
-27 -119 -36 -33 -10 -82 -28 -110 -41 -27 -12 -67 -29 -88 -36 -25 -9 -37
-19 -35 -29 3 -14 53 -63 199 -195 31 -27 96 -86 145 -131 49 -44 112 -101
141 -125 73 -63 93 -119 43 -119 -11 0 -80 52 -155 115 -74 64 -135 112 -135
108 0 -5 29 -32 65 -61 35 -30 75 -64 88 -75 13 -12 35 -31 50 -42 15 -11 27
-24 27 -29 0 -5 -8 -1 -19 8 -10 9 -23 16 -29 14 -20 -6 -258 215 -248 231 3
4 -7 20 -23 35 l-27 26 -12 -22 c-6 -13 -13 -36 -16 -53 -2 -16 -3 -1 -3 34
l1 64 -77 65 c-42 35 -77 59 -77 53 0 -6 4 -11 8 -11 4 0 27 -18 50 -40 22
-22 45 -40 50 -40 5 0 17 -9 27 -20 38 -42 -3 -17 -74 44 -41 36 -76 73 -77
83 -1 10 -8 32 -15 50 -12 29 -10 35 14 71 36 56 100 84 297 132 91 22 179 45
195 50 17 5 64 16 105 24 41 8 86 19 100 25 42 17 52 13 48 -16z m1005 0 c-7
-2 -21 -2 -30 0 -10 3 -4 5 12 5 17 0 24 -2 18 -5z m-68 -30 c-4 -10 -15 -48
-24 -85 -10 -37 -20 -71 -24 -75 -15 -15 -7 133 9 155 19 27 50 31 39 5z m171
-73 c39 -21 54 -25 54 -15 0 7 -4 17 -10 20 -5 3 -10 11 -10 17 0 21 34 -18
53 -61 11 -25 35 -60 53 -79 18 -19 38 -50 45 -69 10 -32 9 -36 -25 -69 -48
-47 -85 -46 -124 2 -50 60 -47 145 6 152 30 5 28 14 -9 36 -60 35 -119 96 -93
96 3 0 30 -13 60 -30z m1700 -96 c15 -25 24 -47 22 -50 -18 -17 -68 46 -68 86
0 29 15 18 46 -36z m-2217 -88 c50 -39 89 -72 86 -74 -6 -7 -188 122 -193 137
-7 21 11 11 107 -63z m-139 45 c0 -5 -7 -11 -15 -15 -15 -5 -20 5 -8 17 9 10
23 9 23 -2z m2651 -71 c19 -5 45 -19 57 -30 21 -20 22 -29 22 -170 0 -88 -4
-151 -10 -155 -5 -3 -10 -1 -10 4 0 6 -9 11 -20 11 -11 0 -20 -5 -20 -11 0 -6
-9 -8 -22 -3 -45 14 -53 14 -26 2 39 -19 68 -49 68 -70 0 -24 -7 -23 -46 7
-18 14 -42 25 -54 25 -46 0 -82 42 -47 56 16 6 18 34 5 51 -9 11 16 63 31 63
3 0 7 44 8 98 1 93 8 132 22 132 3 0 22 -5 42 -10z m-3616 -220 c10 -11 15
-20 11 -20 -14 0 -46 21 -46 30 0 16 16 11 35 -10z m149 -195 c27 -24 58 -51
70 -59 12 -7 18 -17 13 -22 -4 -4 -16 1 -26 12 -10 10 -42 37 -70 59 -47 37
-62 55 -43 55 4 0 29 -20 56 -45z m3349 -131 c76 -26 147 -120 147 -194 0 -34
9 -39 -95 54 -49 44 -63 52 -78 44 -10 -5 -17 -15 -14 -21 2 -7 1 -43 -2 -82
l-7 -70 -12 80 c-7 43 -16 82 -20 85 -18 12 -42 56 -42 77 0 43 47 53 123 27z
m-828 -120 c14 -30 23 -59 20 -64 -16 -25 -233 1 -261 31 -26 29 -9 39 44 24
26 -7 54 -16 63 -19 10 -4 16 -2 16 7 0 9 -7 12 -19 9 -13 -3 -18 1 -18 17 0
17 6 21 36 21 19 0 42 7 50 15 9 8 13 15 9 15 -3 0 -3 5 0 10 11 17 32 -6 60
-66z m-112 59 c-7 -2 -19 -2 -25 0 -7 3 -2 5 12 5 14 0 19 -2 13 -5z m847
-264 c0 -41 -34 -76 -114 -117 -92 -46 -131 -58 -140 -43 -4 5 5 34 19 64 18
38 37 60 60 73 19 10 33 20 30 22 -2 2 15 23 38 46 l42 42 33 -35 c17 -19 32
-42 32 -52z m-2602 -28 c3 -8 -1 -12 -9 -9 -7 2 -15 10 -17 17 -3 8 1 12 9 9
7 -2 15 -10 17 -17z m44 -98 c2 -6 97 -87 117 -99 1 -2 0 -8 -4 -14 -4 -6 -26
7 -57 35 -37 33 -54 43 -63 35 -9 -8 -14 -5 -18 12 -3 12 -4 25 -1 30 6 10 21
10 26 1z m268 -165 c25 -22 39 -37 33 -34 -10 5 -13 -6 -15 -41 l-2 -48 -3 49
c-4 43 -10 55 -41 83 -20 17 -32 32 -27 32 6 0 30 -18 55 -41z m-260 -148 c0
-5 -2 -10 -4 -10 -3 0 -8 5 -11 10 -3 6 -1 10 4 10 6 0 11 -4 11 -10z m1861
-73 c-6 -8 -9 -17 -6 -21 3 -3 0 -2 -6 3 -12 10 -4 31 13 31 7 0 7 -4 -1 -13z
m43 -156 c-7 -8 -35 9 -29 19 4 6 11 5 20 -3 7 -6 11 -14 9 -16z m-2919 -520
c3 -5 1 -12 -5 -16 -5 -3 -10 1 -10 9 0 18 6 21 15 7z m63 -19 c2 -7 -1 -12
-8 -12 -6 0 -9 4 -6 9 4 5 1 12 -4 14 -6 3 -5 4 2 3 6 -1 14 -8 16 -14z m-18
-43 c0 -5 -4 -9 -10 -9 -5 0 -10 7 -10 16 0 9 -5 12 -12 8 -7 -4 -8 -3 -4 5 6
9 11 9 22 0 8 -6 14 -15 14 -20z m147 -75 c-3 -3 -12 -4 -19 -1 -8 3 -5 6 6 6
11 1 17 -2 13 -5z m3008 -804 c3 -5 1 -10 -4 -10 -6 0 -11 5 -11 10 0 6 2 10
4 10 3 0 8 -4 11 -10z m-265 -14 c0 -3 -4 -8 -10 -11 -5 -3 -10 -1 -10 4 0 6
5 11 10 11 6 0 10 -2 10 -4z m-187 -63 c-7 -2 -19 -2 -25 0 -7 3 -2 5 12 5 14
0 19 -2 13 -5z m34 -19 c-3 -3 -12 -4 -19 -1 -8 3 -5 6 6 6 11 1 17 -2 13 -5z
m-1627 -74 c9 -17 8 -20 -10 -20 -13 0 -20 7 -20 20 0 11 4 20 10 20 5 0 14
-9 20 -20z m1367 14 c-3 -3 -12 -4 -19 -1 -8 3 -5 6 6 6 11 1 17 -2 13 -5z"/>
<path d="M10140 14330 c0 -5 5 -10 11 -10 5 0 7 5 4 10 -3 6 -8 10 -11 10 -2
0 -4 -4 -4 -10z"/>
<path d="M10746 13881 c-3 -5 3 -11 13 -14 14 -3 18 -1 14 9 -6 16 -19 18 -27
5z"/>
<path d="M8060 14226 c0 -2 8 -10 18 -17 15 -13 16 -12 3 4 -13 16 -21 21 -21
13z"/>
<path d="M2231 15598 c-18 -12 -40 -35 -49 -50 -15 -26 -15 -30 0 -55 23 -39
75 -73 113 -73 38 0 90 34 113 73 15 25 15 29 0 55 -41 67 -120 90 -177 50z
m109 -3 c16 -8 38 -27 49 -43 20 -28 20 -29 1 -60 -43 -71 -125 -79 -179 -17
-39 45 -30 78 34 117 36 22 57 23 95 3z"/>
<path d="M2255 15540 c-9 -28 3 -60 23 -60 14 0 13 2 -2 13 -26 19 -13 57 20
57 13 0 24 -2 24 -4 0 -2 3 -11 6 -19 3 -8 -2 -22 -11 -31 -14 -14 -14 -16 -1
-16 18 0 30 33 21 60 -5 15 -15 20 -40 20 -25 0 -35 -5 -40 -20z"/>
<path d="M2619 15580 c-26 -21 -20 -27 10 -8 22 14 51 4 51 -17 0 -9 -10 -19
-22 -24 l-23 -8 23 -7 c36 -12 25 -66 -13 -66 -2 0 -11 7 -20 16 -20 20 -33
11 -15 -11 15 -18 61 -20 78 -3 17 17 15 43 -3 58 -11 9 -13 16 -5 24 16 16
12 44 -9 56 -26 13 -25 13 -52 -10z"/>
<path d="M3105 15590 c-3 -5 1 -10 10 -10 9 0 13 5 10 10 -3 6 -8 10 -10 10
-2 0 -7 -4 -10 -10z"/>
<path d="M4625 15560 l39 -40 -39 -40 c-21 -22 -35 -40 -29 -40 5 0 28 18 49
40 l39 40 -39 40 c-21 22 -44 40 -49 40 -6 0 8 -18 29 -40z"/>
<path d="M2740 15515 l0 -75 34 0 c48 0 86 33 86 76 0 47 -29 74 -80 74 l-40
0 0 -75z m84 52 c28 -21 18 -88 -16 -104 -45 -22 -58 -9 -58 58 0 58 0 59 28
59 16 0 36 -6 46 -13z"/>
<path d="M2969 15519 c16 -40 33 -75 39 -77 5 -1 19 21 30 50 31 83 35 101 24
94 -6 -3 -18 -31 -27 -61 -10 -30 -21 -55 -26 -55 -4 0 -16 26 -26 57 -11 31
-24 58 -30 60 -7 3 1 -28 16 -68z"/>
<path d="M3113 15495 c0 -33 2 -45 4 -27 2 18 2 45 0 60 -2 15 -4 0 -4 -33z"/>
<path d="M3176 15537 c-22 -16 -19 -75 5 -90 18 -11 69 -2 69 14 0 6 -6 6 -19
-1 -23 -12 -51 -3 -51 16 0 10 12 14 40 14 44 0 52 16 24 44 -19 19 -44 20
-68 3z m48 -3 c28 -11 18 -34 -14 -34 -30 0 -43 23 -17 33 6 3 13 6 14 6 1 1
8 -2 17 -5z"/>
<path d="M3280 15547 c0 -19 33 -107 40 -107 5 0 14 18 20 40 13 47 25 45 34
-6 9 -44 25 -40 43 11 13 39 14 90 0 55 -3 -8 -8 -28 -11 -43 -8 -36 -22 -27
-30 19 -8 42 -25 40 -40 -3 -16 -48 -23 -48 -31 -4 -4 23 -11 41 -16 41 -5 0
-9 -1 -9 -3z"/>
<path d="M9883 15314 l-21 -33 70 -40 c39 -23 73 -39 76 -37 2 3 1 17 -2 31
-7 26 -25 48 -77 90 l-24 21 -22 -32z"/>
<path d="M15250 15271 c0 -15 29 -33 41 -25 9 5 7 11 -6 21 -22 15 -35 17 -35
4z"/>
<path d="M10026 15192 c-3 -5 3 -13 13 -19 14 -9 18 -8 18 3 0 15 -24 27 -31
16z"/>
<path d="M11352 15025 c-15 -32 -15 -35 -2 -35 6 0 10 6 10 14 0 8 6 16 13 19
8 3 9 8 1 16 -8 9 -14 5 -22 -14z"/>
<path d="M4600 14890 c0 -8 14 -29 32 -47 l32 -33 -34 -35 c-18 -19 -31 -37
-29 -40 3 -2 24 15 47 38 l42 43 -45 44 c-25 24 -45 38 -45 30z"/>
<path d="M2181 14876 c-7 -9 -11 -38 -9 -73 l3 -58 82 -3 c74 -3 83 -1 93 18
10 19 13 19 40 5 l30 -16 0 62 c0 54 -2 60 -17 54 -41 -17 -53 -17 -53 -2 0
21 -22 27 -95 27 -42 0 -66 -5 -74 -14z m157 -63 l-3 -58 -75 0 -75 0 -3 44
c-5 68 -2 71 83 71 l76 0 -3 -57z m72 2 c0 -39 -17 -46 -45 -18 -16 16 -16 18
5 35 32 26 40 23 40 -17z"/>
<path d="M2626 14869 c-37 -29 -37 -89 0 -118 15 -12 35 -21 44 -21 23 0 67
36 57 46 -4 4 -13 0 -20 -10 -20 -27 -69 -18 -85 17 -28 59 41 115 89 71 10
-9 19 -13 19 -7 0 16 -35 43 -57 43 -11 0 -32 -9 -47 -21z"/>
<path d="M14684 14867 c-4 -11 -4 -53 -1 -95 5 -61 14 -93 43 -152 98 -201
123 -274 164 -468 17 -81 35 -156 39 -167 16 -37 32 -198 20 -206 -6 -3 -14
-31 -19 -60 -4 -30 -8 -42 -9 -26 l-1 27 -100 0 c-82 0 -100 3 -100 15 0 8 -4
15 -9 15 -5 0 -11 10 -13 23 -2 12 -7 -162 -11 -387 -8 -494 -9 -1760 -1
-1769 3 -3 47 25 97 62 80 58 255 176 367 246 63 39 173 102 270 153 243 127
275 146 315 183 17 15 89 58 160 94 184 95 334 174 375 200 19 11 55 29 80 38
51 20 82 43 99 74 15 30 14 43 -5 43 -21 0 -47 28 -51 54 -2 11 -8 25 -13 30
-6 6 -10 18 -10 28 0 10 -4 18 -10 18 -5 0 -10 7 -10 15 0 8 -4 15 -10 15 -5
0 -10 14 -10 30 0 23 -4 30 -20 30 -16 0 -20 7 -20 30 0 19 -5 30 -14 30 -9 0
-19 19 -26 49 -9 39 -17 51 -36 55 -13 4 -24 13 -24 21 0 19 -36 55 -55 55
-11 0 -15 11 -15 39 l0 40 -52 3 -53 3 -12 130 c-7 72 -22 184 -33 250 -12 66
-23 134 -26 150 -3 17 -9 39 -14 50 -5 11 -11 34 -13 50 -5 35 -52 203 -71
255 -22 58 -45 132 -61 193 -14 55 -14 60 5 98 30 58 110 135 149 142 18 4 57
4 87 1 47 -6 54 -5 54 11 0 44 -53 54 -154 29 -57 -14 -68 -22 -115 -75 -29
-32 -60 -59 -70 -59 -12 0 -31 29 -64 99 -25 55 -49 111 -53 125 -3 14 -12 30
-20 37 -8 6 -14 19 -14 29 0 10 -7 23 -16 31 -13 11 -14 9 -8 -17 4 -16 11
-37 15 -46 5 -9 9 -25 9 -35 0 -10 7 -31 16 -48 8 -16 22 -75 30 -130 9 -55
25 -140 36 -190 38 -171 49 -406 20 -424 -6 -3 -12 -42 -14 -86 -6 -107 -34
-213 -60 -221 -16 -5 -19 -12 -15 -38 3 -17 3 -25 0 -18 -2 6 -22 12 -44 12
-21 0 -39 5 -39 10 0 6 -9 10 -20 10 -11 0 -20 -4 -20 -10 0 -5 -9 -10 -20
-10 -15 0 -20 7 -20 26 0 25 -2 26 -57 23 -127 -5 -193 0 -193 16 0 8 -9 15
-20 15 -21 0 -27 -15 -10 -23 6 -3 5 -4 -2 -3 -8 2 -12 15 -10 34 2 23 -2 34
-17 42 -12 6 -21 18 -21 27 0 8 -25 99 -55 202 -52 177 -83 269 -155 461 -17
47 -39 108 -49 135 -22 59 -127 309 -146 345 -12 23 -14 23 -21 7z m886 -1352
c0 -14 -4 -25 -10 -25 -11 0 -14 33 -3 43 11 11 13 8 13 -18z m518 -358 c2
-10 -3 -17 -12 -17 -10 0 -16 9 -16 21 0 24 23 21 28 -4z"/>
<path d="M2777 14833 c-15 -14 -6 -23 12 -12 29 19 49 5 47 -33 -1 -28 -6 -33
-29 -36 -19 -2 -27 1 -27 12 0 8 6 17 13 19 7 3 5 6 -6 6 -10 1 -20 -6 -24
-15 -8 -21 25 -47 47 -38 8 4 23 6 33 6 20 -1 24 46 7 79 -10 19 -59 27 -73
12z"/>
<path d="M2890 14789 c0 -57 17 -66 22 -13 6 73 58 69 58 -3 0 -18 4 -33 8
-33 5 0 7 12 5 28 -3 15 3 36 11 47 22 30 49 9 57 -46 6 -42 7 -42 5 11 l-1
55 -82 1 -83 1 0 -48z"/>
<path d="M3106 14818 c-21 -30 -20 -44 4 -68 24 -24 39 -25 66 -5 17 13 16 14
-18 8 -25 -4 -38 -2 -39 6 -4 42 -2 55 12 64 22 14 53 1 45 -18 -3 -9 0 -15 9
-15 19 0 19 15 -1 34 -22 23 -60 20 -78 -6z"/>
<path d="M3230 14782 c0 -33 4 -51 10 -47 6 3 10 22 10 42 0 26 5 36 20 40 31
8 24 22 -10 20 -29 -2 -30 -3 -30 -55z"/>
<path d="M3327 14833 c-15 -14 -6 -23 12 -12 28 18 50 5 46 -28 -2 -15 -4 -31
-4 -35 -1 -5 -12 -8 -26 -8 -26 0 -35 24 -12 33 7 3 5 6 -6 6 -24 1 -33 -27
-14 -46 10 -10 22 -13 38 -7 13 4 30 7 37 6 15 -3 16 36 2 72 -7 20 -17 26
-38 26 -16 0 -32 -3 -35 -7z"/>
<path d="M9775 14810 c-3 -5 -1 -10 4 -10 6 0 11 5 11 10 0 6 -2 10 -4 10 -3
0 -8 -4 -11 -10z"/>
<path d="M15842 14408 c-16 -16 -15 -43 4 -79 8 -17 13 -33 10 -36 -3 -3 -1
-14 5 -24 12 -23 45 -25 53 -4 5 15 -9 108 -19 126 -12 19 -42 28 -53 17z"/>
<path d="M2271 14206 c-9 -10 -8 -16 3 -25 10 -9 16 -8 25 3 9 10 8 16 -3 25
-10 9 -16 8 -25 -3z"/>
<path d="M4600 14194 c0 -6 16 -25 35 -44 l35 -34 -37 -38 c-20 -21 -34 -40
-31 -44 5 -4 88 71 88 80 0 1 -20 22 -45 46 -25 24 -45 40 -45 34z"/>
<path d="M2207 14154 c-17 -23 -17 -24 4 -45 11 -11 21 -19 22 -17 1 2 10 12
20 24 16 20 16 21 -6 41 l-22 21 -18 -24z"/>
<path d="M2645 14168 c-2 -7 -14 -39 -26 -71 -21 -58 -21 -88 1 -48 14 28 65
29 80 1 6 -11 15 -20 19 -20 12 0 -45 144 -58 148 -6 2 -13 -2 -16 -10z m28
-35 c2 -10 8 -26 12 -35 6 -15 2 -18 -23 -18 -30 0 -30 0 -19 35 11 38 22 45
30 18z"/>
<path d="M2763 14105 c0 -44 2 -61 4 -37 2 23 2 59 0 80 -2 20 -4 1 -4 -43z"/>
<path d="M2870 14105 c0 -43 4 -75 10 -75 6 0 10 14 10 30 0 20 5 30 15 30 8
0 21 -13 30 -30 9 -16 20 -30 26 -30 5 0 2 14 -7 32 -15 28 -15 32 0 40 19 11
21 49 4 66 -7 7 -29 12 -50 12 l-38 0 0 -75z m64 59 c9 -3 16 -16 16 -29 0
-22 -17 -35 -46 -35 -9 0 -14 11 -14 35 0 36 10 42 44 29z"/>
<path d="M3383 14105 c0 -44 2 -61 4 -37 2 23 2 59 0 80 -2 20 -4 1 -4 -43z"/>
<path d="M3432 14140 c-7 -12 -8 -20 -2 -20 5 0 10 -13 10 -29 0 -44 10 -61
34 -61 19 1 19 2 4 11 -23 13 -25 79 -3 79 12 0 11 4 -5 20 -11 11 -21 20 -23
20 -1 0 -8 -9 -15 -20z"/>
<path d="M2293 14105 c-18 -19 -33 -39 -33 -44 0 -12 59 -71 71 -71 5 0 26 16
46 36 l36 36 -32 30 c-17 16 -31 33 -31 39 0 18 -26 7 -57 -26z m71 -13 l27
-29 -30 -32 -29 -31 -31 31 -31 30 28 29 c15 16 30 29 33 30 3 0 18 -13 33
-28z"/>
<path d="M3018 14129 c-22 -12 -24 -71 -4 -88 19 -16 68 -10 74 7 3 11 1 11
-17 0 -15 -9 -26 -10 -38 -2 -34 21 -26 34 21 34 50 0 56 10 26 40 -22 22 -37
24 -62 9z m60 -26 c2 -9 -8 -13 -32 -13 -28 0 -34 3 -29 16 7 18 54 16 61 -3z"/>
<path d="M3140 14125 c-16 -19 -6 -45 18 -45 11 0 25 -7 32 -15 17 -21 -15
-33 -42 -16 -16 10 -19 10 -16 -1 3 -7 19 -13 39 -13 27 0 35 4 37 21 2 16 -4
24 -27 32 -42 15 -41 36 2 28 30 -5 31 -5 13 9 -25 19 -40 19 -56 0z"/>
<path d="M3538 14129 c-26 -14 -22 -38 7 -45 13 -3 29 -12 36 -20 16 -20 -17
-31 -43 -15 -16 10 -19 10 -16 -1 3 -7 19 -13 39 -13 27 0 35 4 37 21 2 16 -4
24 -27 32 -42 15 -41 37 0 28 27 -5 30 -4 19 9 -14 17 -28 18 -52 4z"/>
<path d="M3240 14091 c0 -47 15 -61 63 -59 l37 1 0 49 c0 59 -18 64 -22 6 -3
-38 -6 -43 -28 -43 -22 0 -25 5 -28 43 -4 53 -22 56 -22 3z"/>
<path d="M17920 14060 c0 -11 4 -20 8 -20 5 0 7 -13 4 -30 -4 -28 -2 -30 29
-31 l34 -1 -28 -11 c-34 -14 -34 -50 1 -55 12 -2 22 1 22 7 0 6 6 11 14 11 23
0 27 47 10 100 -16 49 -17 50 -55 50 -32 0 -39 -3 -39 -20z"/>
<path d="M18442 14034 c2 -12 13 -20 28 -21 20 -2 21 -1 7 5 -10 4 -18 12 -17
17 1 5 -4 11 -10 13 -7 3 -10 -3 -8 -14z"/>
<path d="M20650 13765 c0 -8 9 -15 20 -15 11 0 20 7 20 15 0 8 -9 15 -20 15
-11 0 -20 -7 -20 -15z"/>
<path d="M8880 13531 c0 -5 7 -11 15 -15 8 -3 15 -1 15 3 0 5 -7 11 -15 15 -8
3 -15 1 -15 -3z"/>
<path d="M2182 13521 c-9 -5 -12 -24 -10 -52 3 -43 4 -44 41 -47 21 -2 45 2
53 9 19 15 18 64 -2 83 -17 17 -61 21 -82 7z m73 -46 c0 -26 -4 -30 -31 -33
-34 -3 -49 16 -38 50 4 15 13 18 37 16 28 -3 32 -7 32 -33z"/>
<path d="M2322 13518 c-17 -17 -15 -73 2 -87 8 -7 32 -11 53 -9 37 3 38 4 41
47 2 28 -1 47 -10 52 -19 13 -72 11 -86 -3z m81 -29 c9 -34 -3 -49 -39 -49
-31 0 -34 3 -34 28 0 36 6 42 41 42 19 0 28 -6 32 -21z"/>
<path d="M8911 13497 c2 -1 13 -9 24 -17 19 -14 19 -14 6 3 -7 9 -18 17 -24
17 -6 0 -8 -1 -6 -3z"/>
<path d="M4600 13484 c0 -6 16 -25 35 -44 l35 -34 -37 -38 c-20 -21 -34 -40
-32 -43 3 -2 24 15 47 38 l42 43 -45 44 c-25 24 -45 40 -45 34z"/>
<path d="M2720 13400 c0 -47 4 -80 10 -80 6 0 10 33 10 80 0 47 -4 80 -10 80
-6 0 -10 -33 -10 -80z"/>
<path d="M3210 13400 c0 -47 4 -80 10 -80 6 0 10 17 10 39 0 42 18 65 44 55
11 -4 16 -19 16 -50 0 -24 5 -44 10 -44 6 0 10 20 10 44 0 51 -18 71 -55 62
-23 -6 -25 -3 -25 24 0 16 -4 30 -10 30 -6 0 -10 -33 -10 -80z"/>
<path d="M2600 13395 c0 -43 4 -75 10 -75 6 0 10 16 10 35 0 33 2 35 33 36
l32 1 -30 7 c-23 5 -31 12 -33 33 -3 24 0 27 35 31 36 3 35 4 -9 5 l-48 2 0
-75z"/>
<path d="M8960 13460 c0 -5 5 -10 11 -10 5 0 7 5 4 10 -3 6 -8 10 -11 10 -2 0
-4 -4 -4 -10z"/>
<path d="M3561 13433 c-9 -10 -10 -17 -3 -22 6 -3 12 -24 14 -46 2 -30 8 -41
23 -44 19 -3 19 -3 3 16 -22 24 -24 73 -3 73 8 0 15 5 15 10 0 6 -6 10 -14 10
-8 0 -16 4 -18 9 -1 5 -9 2 -17 -6z"/>
<path d="M2790 13415 c-29 -35 -7 -95 35 -95 27 0 55 29 55 57 0 43 -64 70
-90 38z m60 -9 c16 -20 9 -56 -13 -70 -15 -9 -21 -7 -33 8 -18 25 -18 41 2 60
19 20 28 20 44 2z"/>
<path d="M2903 13416 c3 -8 11 -33 17 -55 14 -52 26 -52 41 -1 7 22 16 40 20
40 4 0 10 -18 14 -40 4 -22 12 -40 19 -40 13 0 42 97 33 107 -3 3 -11 -13 -17
-36 -6 -23 -13 -41 -15 -41 -2 0 -9 18 -15 41 -13 49 -29 47 -45 -7 l-12 -39
-12 28 c-6 16 -11 35 -11 43 0 8 -5 14 -11 14 -6 0 -9 -6 -6 -14z"/>
<path d="M3098 13419 c-26 -15 -24 -75 3 -89 23 -13 69 -5 69 11 0 6 -6 6 -19
-1 -23 -12 -47 -5 -55 17 -15 37 22 75 51 52 7 -7 17 -9 20 -5 9 9 -16 26 -37
26 -8 -1 -23 -5 -32 -11z"/>
<path d="M3363 13423 c-7 -2 -13 -9 -13 -14 0 -6 9 -5 21 2 17 9 25 8 37 -5
17 -17 10 -22 -38 -28 -35 -4 -36 -51 -2 -56 13 -2 29 1 37 8 10 8 14 8 18 -2
3 -7 6 10 6 38 1 59 -19 76 -66 57z m47 -74 c-13 -24 -43 -22 -48 4 -3 13 3
17 28 17 28 0 30 -2 20 -21z"/>
<path d="M3470 13376 c0 -31 5 -56 10 -56 6 0 10 18 10 41 0 32 4 42 20 46 11
3 20 9 20 14 0 12 -17 11 -25 -1 -5 -8 -11 -7 -21 1 -12 10 -14 2 -14 -45z"/>
<path d="M2174 13366 c-3 -8 -4 -31 -2 -52 3 -37 5 -39 41 -42 21 -2 45 2 53
9 17 14 19 70 2 87 -17 17 -87 15 -94 -2z m81 -41 c0 -26 -4 -30 -31 -33 -34
-3 -49 16 -38 50 4 15 13 18 37 16 28 -3 32 -7 32 -33z"/>
<path d="M2322 13368 c-16 -16 -15 -73 2 -87 8 -7 32 -11 53 -9 l38 3 0 50 0
50 -40 3 c-23 2 -46 -3 -53 -10z m80 -25 c9 -38 -2 -54 -35 -51 -32 3 -45 23
-33 54 8 21 63 18 68 -3z"/>
<path d="M11120 13113 c0 -10 5 -25 10 -33 8 -12 10 -9 10 12 0 15 -4 30 -10
33 -5 3 -10 -2 -10 -12z"/>
<path d="M10966 13061 c-3 -5 1 -14 9 -21 13 -10 15 -9 15 9 0 21 -14 28 -24
12z"/>
<path d="M16860 13038 c0 -9 5 -20 10 -23 13 -8 13 5 0 25 -8 13 -10 13 -10
-2z"/>
<path d="M11257 11553 c-4 -3 -7 -42 -7 -86 l0 -79 47 7 c46 7 93 30 93 46 0
12 -105 119 -117 119 -5 0 -13 -3 -16 -7z"/>
<path d="M11090 11460 c0 -16 5 -30 10 -30 6 0 9 14 8 30 -1 17 -6 30 -10 30
-4 0 -8 -13 -8 -30z"/>
<path d="M11368 11299 c-11 -6 -18 -22 -18 -40 0 -29 0 -29 25 -13 15 10 25
26 25 40 0 26 -6 29 -32 13z"/>
<path d="M10560 11100 c0 -5 5 -10 11 -10 5 0 7 5 4 10 -3 6 -8 10 -11 10 -2
0 -4 -4 -4 -10z"/>
<path d="M14698 10753 c6 -2 18 -2 25 0 6 3 1 5 -13 5 -14 0 -19 -2 -12 -5z"/>
<path d="M14947 10753 c18 -2 50 -2 70 0 21 2 7 4 -32 4 -38 0 -55 -2 -38 -4z"/>
<path d="M9423 10465 c0 -22 2 -30 4 -17 2 12 2 30 0 40 -3 9 -5 -1 -4 -23z"/>
<path d="M6520 9283 c0 -126 1 -133 20 -133 19 0 20 7 20 133 0 126 -1 133
-20 133 -19 0 -20 -7 -20 -133z"/>
<path d="M7380 9283 c0 -126 1 -133 20 -133 17 0 20 7 20 53 0 61 20 97 55 97
33 0 45 -27 45 -97 0 -52 2 -59 20 -59 18 0 20 7 20 71 0 90 -15 115 -70 115
-21 0 -42 -4 -45 -10 -15 -24 -25 -6 -25 43 0 46 -3 53 -20 53 -19 0 -20 -7
-20 -133z"/>
<path d="M6310 9280 c0 -123 1 -130 20 -130 18 0 20 7 20 55 l0 55 50 0 c38 0
50 4 50 15 0 11 -12 15 -51 15 l-50 0 3 43 3 42 63 3 c46 2 62 7 62 17 0 12
-17 15 -85 15 l-85 0 0 -130z"/>
<path d="M8010 9355 c0 -16 -6 -25 -15 -25 -8 0 -15 -6 -15 -14 0 -8 7 -16 15
-20 11 -4 15 -21 15 -64 0 -67 11 -82 57 -82 38 0 47 27 11 32 -21 3 -23 9
-23 58 0 49 2 55 23 58 31 5 29 32 -3 32 -20 0 -25 5 -25 25 0 18 -5 25 -20
25 -15 0 -20 -7 -20 -25z"/>
<path d="M6643 9308 c-62 -68 -18 -168 72 -168 16 0 38 12 56 29 38 39 40 96
4 135 -32 35 -101 37 -132 4z m106 -39 c20 -36 8 -77 -26 -85 -37 -10 -58 7
-61 52 -3 28 1 42 15 51 26 19 55 12 72 -18z"/>
<path d="M6834 9313 c46 -159 48 -163 71 -163 21 0 26 8 41 60 25 91 30 89 59
-31 4 -18 15 -29 31 -32 22 -4 26 1 43 57 34 110 35 126 13 126 -16 0 -22 -12
-32 -60 -7 -33 -16 -63 -20 -65 -4 -2 -15 25 -25 61 -16 61 -19 65 -44 62 -22
-3 -28 -11 -41 -60 -18 -69 -26 -77 -34 -41 -23 95 -27 103 -47 103 -15 0 -19
-5 -15 -17z"/>
<path d="M7173 9308 c-62 -68 -18 -168 72 -168 17 0 39 12 58 32 28 28 30 33
14 36 -10 2 -27 -4 -37 -13 -26 -23 -72 -16 -86 14 -28 55 32 116 76 76 10 -9
29 -15 42 -13 l23 3 -27 28 c-36 36 -104 38 -135 5z"/>
<path d="M7630 9303 l-22 -28 23 -3 c13 -2 26 3 31 12 17 30 78 14 78 -21 0
-9 -14 -13 -43 -13 -51 0 -87 -22 -87 -55 0 -46 64 -70 107 -40 14 10 24 12
28 5 3 -5 13 -10 21 -10 11 0 14 16 14 73 0 90 -13 107 -83 107 -38 0 -49 -5
-67 -27z m110 -81 c0 -18 -32 -52 -49 -52 -28 0 -46 26 -31 45 13 15 80 21 80
7z"/>
<path d="M7840 9236 c0 -89 1 -94 20 -89 17 5 20 14 20 58 0 57 17 85 51 85
12 0 19 7 19 20 0 24 -32 27 -51 4 -11 -14 -13 -14 -21 0 -5 9 -16 16 -23 16
-12 0 -15 -19 -15 -94z"/>
<path d="M6900 8249 c-37 -15 -60 -49 -60 -92 0 -43 22 -92 45 -101 35 -13 95
-6 115 14 39 39 17 55 -27 20 -33 -26 -49 -25 -78 5 -33 32 -34 83 -2 113 29
27 58 28 82 2 22 -24 50 -27 41 -4 -3 9 -6 17 -6 20 0 7 -59 34 -72 33 -7 0
-24 -5 -38 -10z"/>
<path d="M6388 8230 c-14 -9 -18 -25 -18 -75 0 -78 9 -85 104 -85 53 0 70 4
86 20 16 16 25 18 40 10 35 -19 40 -12 40 55 0 67 -5 74 -41 54 -17 -8 -23 -7
-34 7 -10 14 -30 19 -87 21 -40 2 -81 -1 -90 -7z m152 -75 l0 -55 -70 0 -70 0
0 55 0 55 70 0 70 0 0 -55z m70 0 c0 -27 -1 -28 -24 -19 -28 11 -17 40 17 43
4 1 7 -10 7 -24z"/>
<path d="M7083 8188 c-12 -6 -24 -17 -27 -24 -7 -17 17 -18 43 -2 19 11 51 5
51 -10 0 -4 -19 -12 -42 -18 -48 -11 -69 -35 -52 -61 8 -13 26 -18 68 -20 l56
-1 0 58 c0 49 -4 61 -22 74 -26 18 -44 19 -75 4z m61 -92 c-7 -18 -29 -27 -49
-20 -31 12 -14 34 26 34 20 0 27 -4 23 -14z"/>
<path d="M7265 8191 c-4 -7 -15 -9 -26 -6 -17 6 -19 1 -19 -64 0 -56 3 -71 15
-71 11 0 15 12 15 49 0 51 18 78 45 67 11 -4 15 -21 15 -61 0 -48 2 -55 20
-55 18 0 20 7 20 54 0 46 3 56 20 61 32 10 40 -3 40 -61 0 -49 2 -54 21 -54
21 0 21 4 16 62 -6 70 -25 93 -67 83 -32 -8 -49 -8 -81 0 -16 4 -29 2 -34 -4z"/>
<path d="M7506 8179 c-32 -25 -37 -86 -8 -112 32 -29 112 -16 112 18 0 12 -5
12 -35 -2 -28 -13 -37 -14 -50 -3 -27 22 -16 30 40 30 49 0 55 2 55 20 0 26
-43 70 -68 70 -11 0 -31 -9 -46 -21z m74 -24 c11 -13 7 -15 -29 -15 -39 0 -55
13 -28 23 23 10 45 7 57 -8z"/>
<path d="M7701 8191 c-7 -5 -22 -6 -32 -4 -17 5 -19 -1 -19 -66 0 -55 3 -71
14 -71 11 0 16 14 18 48 2 38 7 49 26 57 12 5 22 18 22 27 0 20 -8 22 -29 9z"/>
<path d="M7780 8182 c-30 -25 -20 -40 14 -22 24 13 56 8 56 -8 0 -4 -19 -12
-42 -18 -41 -8 -43 -11 -43 -44 l0 -35 64 -1 63 -1 -4 58 c-5 67 -11 76 -54
85 -21 4 -37 0 -54 -14z m70 -81 c0 -15 -29 -33 -45 -27 -28 10 -17 36 15 36
17 0 30 -4 30 -9z"/>
<path d="M10794 7945 c-19 -29 -11 -60 21 -81 19 -13 28 -13 47 -3 13 7 28 18
33 26 14 18 88 -4 154 -46 122 -78 196 -187 374 -546 184 -370 255 -474 390
-566 34 -24 57 -47 57 -58 0 -10 -17 -31 -37 -47 -146 -110 -234 -278 -379
-727 -184 -567 -249 -711 -375 -837 -67 -67 -189 -126 -189 -90 0 16 -41 32
-66 26 -52 -13 -55 -85 -4 -106 33 -14 65 -1 75 29 3 12 19 21 39 25 49 9 145
75 192 132 101 123 169 272 290 644 192 590 250 716 383 843 65 63 91 71 91
32 0 -14 3 -25 8 -25 4 0 33 24 66 53 l58 52 -60 53 c-33 28 -63 52 -66 52 -3
0 -6 -8 -6 -17 0 -10 -4 -24 -9 -32 -13 -20 -96 35 -162 107 -78 86 -130 172
-267 447 -147 295 -204 393 -283 479 -69 75 -132 117 -212 142 -35 11 -63 26
-72 41 -21 32 -69 31 -91 -2z m77 -11 c17 -21 0 -49 -31 -49 -31 0 -48 28 -31
49 8 9 21 16 31 16 10 0 23 -7 31 -16z m-1 -2969 c18 -21 3 -55 -24 -55 -33 0
-50 23 -36 49 12 24 42 27 60 6z"/>
<path d="M6360 7650 c0 -63 3 -80 14 -80 11 0 16 14 18 48 l3 47 33 -47 c49
-71 62 -65 62 32 0 63 -3 80 -14 80 -11 0 -16 -15 -18 -52 l-3 -53 -35 53
c-49 74 -60 69 -60 -28z"/>
<path d="M7346 7709 c-32 -25 -36 -84 -8 -118 23 -30 76 -31 105 -3 19 19 19
22 4 22 -9 0 -17 -4 -17 -10 0 -20 -50 -23 -70 -5 -24 22 -26 77 -4 99 20 21
61 20 72 0 5 -9 15 -15 22 -12 21 7 -25 48 -54 48 -13 0 -35 -9 -50 -21z"/>
<path d="M8208 7723 c-19 -5 -25 -23 -8 -23 6 0 10 -28 10 -65 0 -37 4 -65 10
-65 6 0 10 33 10 80 0 44 -1 79 -2 79 -2 -1 -11 -3 -20 -6z"/>
<path d="M10360 7682 c0 -4 17 -25 38 -45 l38 -37 44 45 c49 50 35 63 -15 15
l-31 -30 -29 30 c-28 30 -45 38 -45 22z"/>
<path d="M6530 7665 c-18 -21 -4 -32 21 -17 11 7 24 10 29 7 19 -12 9 -24 -22
-27 -28 -2 -33 -7 -33 -28 0 -23 4 -25 48 -26 l47 -2 0 42 c0 23 -5 47 -12 54
-17 17 -63 15 -78 -3z m60 -55 c0 -12 -28 -25 -36 -17 -9 9 6 27 22 27 8 0 14
-5 14 -10z"/>
<path d="M6650 7624 c0 -41 4 -54 15 -54 11 0 15 11 15 40 0 28 5 43 16 47 21
8 34 -13 34 -54 0 -52 28 -43 32 10 2 29 8 42 18 42 10 0 16 -13 18 -42 2 -29
8 -43 18 -43 18 0 20 83 2 98 -7 5 -48 10 -90 10 l-78 0 0 -54z"/>
<path d="M6871 7666 c-20 -24 -9 -79 18 -92 25 -13 62 -5 69 15 2 7 -7 10 -29
9 -18 -2 -34 2 -36 10 -3 8 8 12 36 12 29 0 41 4 41 14 0 39 -74 63 -99 32z
m64 -16 c4 -6 -5 -10 -20 -10 -15 0 -24 4 -20 10 3 6 12 10 20 10 8 0 17 -4
20 -10z"/>
<path d="M6990 7665 c0 -10 7 -15 18 -13 21 4 19 22 -2 26 -10 2 -16 -3 -16
-13z"/>
<path d="M7491 7667 c-15 -19 -3 -28 19 -15 10 7 25 8 36 3 16 -7 15 -9 -12
-15 -43 -10 -54 -18 -54 -41 0 -22 37 -41 60 -29 8 4 21 5 28 3 15 -6 17 60 2
88 -12 22 -62 26 -79 6z m59 -67 c-11 -21 -35 -27 -45 -10 -10 16 4 30 31 30
22 0 23 -3 14 -20z"/>
<path d="M7605 7672 c-3 -3 -5 -27 -5 -54 0 -36 4 -48 15 -48 11 0 15 11 15
38 0 41 15 63 36 55 9 -3 14 -21 14 -49 0 -56 18 -58 22 -1 3 37 6 42 28 42
22 0 25 -5 28 -42 2 -24 7 -43 13 -43 14 0 11 86 -3 98 -13 10 -153 13 -163 4z"/>
<path d="M7817 7662 c-29 -31 -21 -69 18 -89 22 -12 65 0 65 17 0 13 -6 13
-29 -2 -15 -9 -23 -9 -35 1 -27 22 -18 31 29 31 46 0 53 7 35 41 -14 25 -61
25 -83 1z m68 -23 c-8 -12 -52 -12 -60 0 -3 6 2 14 12 20 20 11 57 -4 48 -20z"/>
<path d="M7930 7623 c0 -40 4 -53 15 -53 11 0 15 11 15 39 0 29 6 42 23 54 21
15 21 15 -15 14 l-38 -1 0 -53z"/>
<path d="M8027 7673 c-4 -3 -7 -12 -7 -20 0 -11 4 -11 23 1 14 10 27 12 37 6
18 -11 14 -14 -30 -26 -44 -12 -54 -49 -18 -63 13 -5 30 -5 38 -1 8 4 21 5 28
3 16 -6 17 78 0 95 -13 13 -60 16 -71 5z m61 -65 c-7 -21 -36 -34 -49 -21 -6
6 -8 16 -5 22 10 15 59 14 54 -1z"/>
<path d="M6990 7585 c0 -10 7 -15 18 -13 21 4 19 22 -2 26 -10 2 -16 -3 -16
-13z"/>
<path d="M12337 7005 c-25 -29 -34 -46 -26 -50 8 -6 7 -10 -2 -16 -12 -8 -12
-10 0 -18 11 -7 11 -10 0 -15 -12 -5 -12 -7 0 -12 10 -5 10 -8 1 -14 -8 -5 2
-22 33 -54 31 -33 47 -43 51 -34 5 11 7 11 12 0 5 -10 9 -10 20 -1 11 9 14 9
14 -1 0 -10 3 -10 15 0 10 9 15 9 15 1 0 -6 5 -11 10 -11 6 0 10 4 10 10 0 5
16 25 37 45 20 19 33 38 30 42 -4 3 -2 12 4 20 9 10 7 13 -7 13 -17 0 -17 1 2
15 14 10 15 14 5 15 -11 0 -12 3 -4 11 7 7 -3 24 -34 56 -32 32 -48 42 -53 33
-6 -9 -9 -9 -13 1 -5 12 -7 12 -15 0 -7 -9 -11 -10 -17 -2 -5 9 -10 9 -21 0
-10 -8 -14 -8 -14 0 0 19 -14 10 -53 -34z m164 -5 c14 -8 19 -21 19 -50 0 -26
-4 -39 -12 -37 -7 1 -14 -11 -18 -28 -5 -29 -7 -30 -60 -30 l-55 0 -3 63 -3
62 31 0 c20 0 30 5 30 15 0 18 41 20 71 5z m5 -158 c-17 -16 -18 -16 -5 5 7
12 15 20 18 17 3 -2 -3 -12 -13 -22z m-132 -11 c-2 -3 -12 3 -22 13 -16 17
-16 18 5 5 12 -7 20 -15 17 -18z"/>
<path d="M12432 6977 l-22 -24 21 -26 c25 -32 39 -34 62 -7 22 26 22 43 -1 63
-25 22 -34 21 -60 -6z m48 -17 c13 -9 13 -11 0 -20 -19 -12 -27 -12 -35 0 -7
11 2 30 13 30 4 0 14 -5 22 -10z"/>
<path d="M12392 6907 c-7 -8 -7 -17 2 -29 12 -17 14 -17 29 0 13 14 14 21 5
30 -15 15 -23 15 -36 -1z"/>
<path d="M12836 7011 c-7 -10 -76 -191 -76 -197 0 -2 7 -4 15 -4 9 0 20 11 25
25 8 21 16 25 50 25 34 0 42 -4 50 -25 5 -14 16 -25 25 -25 20 0 20 -1 -22
112 -33 89 -52 114 -67 89z m43 -113 c1 -5 -12 -8 -29 -8 -19 0 -28 4 -25 13
2 6 10 26 16 42 l11 30 13 -35 c8 -19 14 -38 14 -42z"/>
<path d="M12970 6915 c0 -87 3 -105 15 -105 12 0 15 18 15 105 0 87 -3 105
-15 105 -12 0 -15 -18 -15 -105z"/>
<path d="M13114 7007 c-3 -8 -4 -54 -2 -103 3 -75 6 -89 21 -92 15 -3 17 5 17
65 l0 68 30 -52 c17 -29 35 -53 40 -53 5 0 23 26 39 58 l30 57 1 -72 c0 -58 3
-73 15 -73 12 0 15 18 15 105 0 129 -14 138 -62 40 -18 -36 -35 -65 -38 -65
-3 0 -20 29 -38 65 -30 62 -56 82 -68 52z"/>
<path d="M13650 6978 c0 -33 -3 -39 -12 -30 -7 7 -24 12 -39 12 -32 0 -69 -41
-69 -75 0 -35 37 -75 70 -75 16 0 32 5 36 11 4 8 9 8 17 0 23 -23 27 -8 27 94
0 87 -3 105 -15 105 -11 0 -15 -11 -15 -42z m-12 -60 c7 -7 12 -21 12 -33 0
-47 -62 -63 -81 -21 -22 47 33 90 69 54z"/>
<path d="M13890 6915 c0 -87 3 -105 15 -105 12 0 15 18 15 105 0 87 -3 105
-15 105 -12 0 -15 -18 -15 -105z"/>
<path d="M13382 6937 c-45 -48 -16 -127 48 -127 41 0 70 31 70 75 0 68 -73
100 -118 52z m78 -21 c28 -35 -11 -93 -47 -70 -36 22 -23 84 17 84 10 0 23 -7
30 -14z"/>
<path d="M13740 6940 c-45 -45 -13 -130 48 -130 16 0 36 8 45 18 21 23 21 32
2 32 -8 0 -15 -5 -15 -11 0 -18 -64 -6 -68 14 -3 14 5 17 52 17 48 0 56 3 56
18 0 27 -42 62 -73 62 -15 0 -36 -9 -47 -20z m84 -25 c4 -12 -3 -15 -34 -15
-38 0 -49 8 -33 23 12 13 61 7 67 -8z"/>
<path d="M16745 6728 c-26 -15 -35 -28 -35 -54 0 -49 76 -73 104 -33 14 20 21
21 83 16 107 -9 252 -63 453 -171 189 -101 294 -145 393 -166 56 -11 57 -12
57 -46 0 -19 3 -34 8 -34 4 1 35 16 70 33 71 37 72 34 -20 96 l-47 31 -3 -32
c-3 -32 -4 -33 -43 -30 -62 6 -197 56 -304 114 -314 169 -415 209 -561 225
-54 5 -70 11 -92 35 -29 31 -34 32 -63 16z m54 -37 c13 -24 -8 -55 -34 -50
-28 6 -42 34 -26 53 18 22 48 20 60 -3z"/>
<path d="M18285 6650 c3 -5 13 -10 21 -10 8 0 14 5 14 10 0 6 -9 10 -21 10
-11 0 -17 -4 -14 -10z"/>
<path d="M18334 6645 c-4 -8 -4 -21 -1 -29 4 -9 -3 -16 -20 -21 -31 -7 -83
-63 -83 -89 0 -10 16 -34 35 -53 19 -19 35 -38 35 -43 0 -6 23 -10 52 -10 48
0 54 3 95 45 47 50 51 65 26 96 -35 42 -46 50 -74 56 -23 4 -27 8 -18 19 6 8
9 21 5 29 -7 19 -45 20 -52 0z m36 -9 c0 -3 -4 -8 -10 -11 -5 -3 -10 -1 -10 4
0 6 5 11 10 11 6 0 10 -2 10 -4z m64 -82 c22 -22 20 -70 -4 -94 -25 -25 -105
-27 -138 -4 -24 17 -30 61 -12 95 9 16 22 19 75 19 44 0 68 -5 79 -16z"/>
<path d="M18304 6536 c-9 -22 2 -46 21 -46 12 0 15 8 13 27 -3 30 -25 42 -34
19z"/>
<path d="M18380 6520 c0 -25 4 -31 18 -28 11 2 17 12 17 28 0 16 -6 26 -17 28
-14 3 -18 -3 -18 -28z"/>
<path d="M18400 6650 c0 -5 6 -10 14 -10 8 0 18 5 21 10 3 6 -3 10 -14 10 -12
0 -21 -4 -21 -10z"/>
<path d="M19040 6536 l0 -105 33 -1 c17 0 42 -1 55 -1 54 -2 81 69 46 120 -14
20 -23 23 -60 18 l-44 -5 0 39 c0 28 -4 39 -15 39 -12 0 -15 -18 -15 -104z
m104 -2 c19 -18 20 -38 6 -65 -20 -36 -80 -13 -80 31 0 22 25 50 45 50 7 0 21
-7 29 -16z"/>
<path d="M18292 6623 c-6 -2 -10 -9 -7 -13 7 -11 35 -2 35 11 0 10 -8 10 -28
2z"/>
<path d="M18400 6621 c0 -14 18 -23 31 -15 8 4 7 9 -2 15 -18 11 -29 11 -29 0z"/>
<path d="M18700 6530 c0 -82 3 -100 15 -100 11 0 15 11 15 40 0 32 4 40 18 40
12 0 25 -14 37 -40 11 -25 25 -40 36 -40 16 0 17 3 7 28 -7 15 -16 32 -20 38
-5 6 0 19 12 29 27 24 26 70 -2 89 -13 9 -43 16 -70 16 l-48 0 0 -100z m107
54 c10 -26 -11 -49 -46 -52 -30 -3 -31 -2 -31 32 0 34 2 36 35 36 24 0 38 -5
42 -16z"/>
<path d="M19410 6595 c0 -7 -8 -19 -17 -24 -17 -10 -17 -12 -1 -24 11 -9 18
-31 20 -63 3 -47 4 -49 36 -52 35 -4 44 12 12 21 -16 4 -20 14 -20 45 0 31 4
41 20 45 25 7 26 27 1 27 -10 0 -21 9 -24 20 -6 23 -27 27 -27 5z"/>
<path d="M18880 6550 c-36 -36 -21 -102 27 -121 35 -13 77 4 92 37 16 35 14
48 -10 78 -26 33 -79 36 -109 6z m77 -12 c20 -26 22 -48 4 -69 -36 -45 -89 7
-57 56 18 27 38 32 53 13z"/>
<path d="M19240 6550 c-36 -36 -21 -102 27 -121 72 -27 128 65 76 124 -22 23
-78 22 -103 -3z m78 -12 c7 -7 12 -24 12 -38 0 -48 -49 -69 -70 -31 -14 27
-13 47 6 65 19 19 36 20 52 4z"/>
<path d="M2972 6427 l-72 -71 -33 32 c-18 18 -36 32 -40 32 -18 0 -4 -29 31
-63 l38 -37 83 84 c46 46 79 86 74 89 -5 3 -42 -26 -81 -66z"/>
<path d="M3250 6400 c0 -60 4 -100 10 -100 6 0 10 20 10 45 l0 45 40 0 c22 0
40 5 40 10 0 6 -18 10 -41 10 -39 0 -40 1 -37 33 3 31 5 32 51 35 68 4 58 22
-13 22 l-60 0 0 -100z"/>
<path d="M3405 6491 c-7 -12 12 -24 25 -16 11 7 4 25 -10 25 -5 0 -11 -4 -15
-9z"/>
<path d="M3652 6489 c2 -6 8 -10 13 -10 5 0 11 4 13 10 2 6 -4 11 -13 11 -9 0
-15 -5 -13 -11z"/>
<path d="M3870 6400 c0 -60 4 -100 10 -100 6 0 10 15 10 34 0 56 16 86 45 86
30 0 49 -37 43 -87 -3 -22 0 -33 9 -33 16 0 18 92 3 121 -11 20 -64 27 -75 9
-12 -19 -25 1 -25 36 0 19 -4 34 -10 34 -6 0 -10 -40 -10 -100z"/>
<path d="M12290 6409 c0 -60 3 -80 13 -77 7 3 13 26 15 53 l3 48 35 -52 c51
-75 64 -69 64 29 0 63 -3 80 -14 80 -11 0 -16 -15 -18 -52 l-3 -53 -35 52
c-50 75 -60 70 -60 -28z"/>
<path d="M13250 6410 c0 -47 4 -80 10 -80 6 0 10 33 10 80 0 47 -4 80 -10 80
-6 0 -10 -33 -10 -80z"/>
<path d="M13940 6475 c-19 -23 -7 -49 35 -71 22 -11 40 -27 40 -35 0 -21 -47
-24 -62 -3 -16 22 -31 9 -17 -14 21 -33 88 -27 99 9 8 25 -9 46 -52 64 -18 8
-33 19 -33 25 0 17 31 24 52 11 25 -15 35 -7 18 14 -16 19 -64 20 -80 0z"/>
<path d="M15060 6480 c0 -5 7 -10 15 -10 8 0 15 5 15 10 0 6 -7 10 -15 10 -8
0 -15 -4 -15 -10z"/>
<path d="M14780 6456 c0 -8 -6 -17 -12 -19 -10 -4 -10 -6 0 -6 7 -1 12 -16 12
-39 0 -21 5 -43 12 -50 15 -15 38 -16 38 -2 0 6 -7 10 -15 10 -11 0 -15 11
-15 35 0 28 5 38 23 45 l22 9 -22 0 c-14 1 -23 7 -23 16 0 8 -4 15 -10 15 -5
0 -10 -6 -10 -14z"/>
<path d="M14983 6451 c-6 -10 -8 -22 -3 -27 5 -5 10 -27 12 -49 2 -33 7 -41
26 -43 12 -2 22 1 22 7 0 6 -7 11 -15 11 -23 0 -21 77 3 83 16 4 16 5 0 6 -10
0 -18 8 -18 16 0 21 -13 19 -27 -4z"/>
<path d="M16287 6453 c-9 -8 62 -83 78 -83 16 0 78 66 73 80 -2 6 -19 -5 -38
-25 l-34 -35 -36 35 c-20 20 -39 32 -43 28z"/>
<path d="M12473 6440 c-13 -5 -23 -16 -23 -25 0 -17 16 -20 25 -5 3 6 15 10
26 10 10 0 19 -4 19 -10 0 -5 -11 -10 -24 -10 -24 0 -56 -23 -56 -39 0 -18 28
-30 68 -29 l42 0 0 44 c0 33 -5 46 -22 58 -25 18 -25 18 -55 6z m37 -75 c-7
-8 -16 -15 -21 -15 -5 0 -9 7 -9 15 0 9 9 15 21 15 18 0 19 -2 9 -15z"/>
<path d="M12608 6443 c-27 -4 -28 -7 -28 -59 0 -40 4 -54 14 -54 10 0 16 14
18 42 2 31 8 44 21 46 14 3 17 -4 17 -42 0 -34 4 -46 15 -46 10 0 15 10 15 33
0 41 13 62 34 54 11 -4 16 -19 16 -47 0 -29 4 -40 15 -40 11 0 15 12 15 44 0
53 -21 80 -54 70 -24 -8 -35 -8 -56 -2 -8 3 -27 3 -42 1z"/>
<path d="M12805 6426 c-29 -29 -31 -43 -9 -74 18 -26 65 -30 84 -7 18 21 6 29
-20 15 -18 -10 -25 -9 -38 4 -15 15 -12 16 31 16 49 0 59 11 35 42 -24 30 -56
31 -83 4z m60 -16 c4 -6 -5 -10 -19 -10 -14 0 -26 5 -26 10 0 6 9 10 19 10 11
0 23 -4 26 -10z"/>
<path d="M12926 6443 c-12 -12 -6 -33 9 -33 8 0 15 6 15 14 0 17 -14 28 -24
19z"/>
<path d="M13328 6442 c-27 -3 -28 -6 -28 -58 0 -63 17 -73 22 -13 2 27 9 46
21 53 23 15 37 -6 37 -56 0 -21 5 -38 10 -38 6 0 10 20 10 44 0 32 5 46 17 50
23 9 43 -19 43 -61 0 -18 5 -33 10 -33 11 0 14 59 4 84 -10 26 -41 38 -64 26
-12 -6 -27 -7 -37 -2 -10 4 -30 6 -45 4z"/>
<path d="M13519 6430 c-27 -22 -19 -27 11 -8 16 10 23 10 37 -5 16 -16 16 -17
-14 -17 -34 0 -56 -20 -51 -47 3 -14 14 -18 51 -19 l47 -2 0 44 c0 33 -5 46
-22 58 -28 20 -31 20 -59 -4z m55 -65 c-4 -8 -17 -15 -30 -15 -15 0 -24 6 -24
15 0 10 10 15 30 15 22 0 28 -4 24 -15z"/>
<path d="M13647 6438 c-13 -10 -19 -31 -22 -81 -4 -63 -2 -67 20 -73 32 -8 56
-2 68 18 14 22 -7 48 -39 48 -33 0 -30 18 4 22 20 2 28 9 31 28 1 14 8 28 15
32 6 5 2 8 -11 8 -12 0 -27 2 -35 5 -7 3 -22 0 -31 -7z m43 -27 c0 -26 -17
-36 -35 -21 -18 15 -8 40 16 40 12 0 19 -7 19 -19z m9 -87 c9 -8 -13 -24 -35
-24 -23 0 -32 18 -17 33 6 6 42 0 52 -9z"/>
<path d="M13762 6434 c-41 -28 -21 -104 28 -104 24 0 50 10 50 20 0 4 -16 7
-36 6 -22 -1 -39 4 -41 12 -3 8 9 12 41 12 52 0 60 16 26 50 -24 24 -38 25
-68 4z m58 -19 c11 -13 7 -15 -25 -15 -32 0 -36 2 -25 15 7 8 18 15 25 15 7 0
18 -7 25 -15z"/>
<path d="M14088 6436 c-26 -13 -35 -54 -18 -86 12 -23 61 -28 79 -6 9 11 4 13
-25 12 -22 -1 -39 4 -41 12 -3 8 8 12 36 12 45 0 57 11 42 39 -13 24 -43 32
-73 17z m50 -23 c2 -9 -7 -13 -27 -13 -31 0 -42 14 -18 23 19 8 40 3 45 -10z"/>
<path d="M14210 6438 c-18 -7 -21 -14 -17 -37 3 -16 3 -31 0 -35 -11 -11 -12
-60 -1 -73 12 -15 56 -17 76 -4 23 14 10 56 -18 59 -36 5 -50 22 -18 22 28 0
42 13 50 47 5 17 1 22 -22 25 -15 2 -38 1 -50 -4z m48 -31 c4 -20 -25 -34 -40
-19 -15 15 -1 44 19 40 10 -2 19 -11 21 -21z m-7 -77 c5 0 9 -7 9 -15 0 -17
-45 -21 -55 -5 -9 15 5 32 22 26 8 -3 19 -6 24 -6z"/>
<path d="M14338 6443 c-27 -4 -28 -7 -28 -59 0 -30 5 -54 10 -54 6 0 10 15 10
33 0 41 21 73 44 64 11 -5 16 -19 16 -52 0 -25 5 -45 10 -45 6 0 10 17 10 39
0 22 6 44 15 51 23 19 45 -5 45 -51 0 -22 5 -39 10 -39 6 0 10 20 10 45 0 36
-5 48 -24 60 -18 12 -30 14 -43 6 -12 -6 -25 -6 -34 0 -7 5 -16 8 -19 7 -3 0
-17 -3 -32 -5z"/>
<path d="M14543 6440 c-25 -10 -38 -48 -28 -79 7 -24 43 -36 74 -26 33 10 24
22 -15 21 -22 -1 -39 4 -41 12 -3 8 9 12 41 12 39 0 46 3 46 19 0 11 -10 27
-22 35 -25 18 -25 18 -55 6z m47 -25 c11 -13 7 -15 -25 -15 -32 0 -36 2 -25
15 7 8 18 15 25 15 7 0 18 -7 25 -15z"/>
<path d="M14681 6441 c-8 -5 -20 -7 -28 -4 -10 4 -13 -8 -13 -51 0 -31 5 -56
10 -56 6 0 10 17 10 39 0 41 20 67 45 57 10 -4 15 -19 15 -51 0 -25 5 -45 10
-45 6 0 10 22 10 50 0 38 -4 52 -19 60 -23 12 -22 12 -40 1z"/>
<path d="M14883 6439 c-13 -5 -23 -13 -23 -19 0 -13 13 -13 27 1 13 13 43 5
43 -11 0 -5 -11 -10 -24 -10 -35 0 -59 -26 -46 -51 9 -15 20 -19 51 -17 l40 3
-3 49 c-3 54 -23 71 -65 55z m47 -69 c0 -6 -7 -13 -15 -16 -20 -8 -48 3 -40
16 8 13 55 13 55 0z"/>
<path d="M15149 6443 c-9 -2 -22 -15 -30 -29 -31 -59 57 -117 95 -62 22 31 20
45 -9 73 -24 25 -27 26 -56 18z m39 -22 c22 -13 11 -65 -14 -69 -31 -4 -50 23
-36 53 12 26 27 31 50 16z"/>
<path d="M15291 6441 c-8 -5 -20 -7 -28 -4 -10 4 -13 -8 -13 -51 0 -31 5 -56
10 -56 6 0 10 17 10 39 0 41 20 67 45 57 10 -4 15 -19 15 -51 0 -25 5 -45 10
-45 6 0 10 22 10 50 0 38 -4 52 -19 60 -23 12 -22 12 -40 1z"/>
<path d="M3410 6370 c0 -40 4 -70 10 -70 6 0 10 30 10 70 0 40 -4 70 -10 70
-6 0 -10 -30 -10 -70z"/>
<path d="M3480 6370 c0 -40 4 -70 10 -70 6 0 10 19 10 43 0 54 18 80 51 75 22
-3 24 -8 27 -60 2 -43 7 -58 17 -58 11 0 15 13 15 48 0 77 -37 110 -91 82 -13
-7 -19 -7 -19 0 0 5 -4 10 -10 10 -6 0 -10 -30 -10 -70z"/>
<path d="M3650 6370 c0 -56 3 -70 15 -70 12 0 15 14 15 70 0 56 -3 70 -15 70
-12 0 -15 -14 -15 -70z"/>
<path d="M3729 6424 c-18 -22 -2 -45 42 -59 19 -7 34 -18 34 -26 0 -18 -42
-24 -61 -8 -8 6 -18 9 -22 5 -11 -12 29 -36 58 -36 61 0 69 54 10 77 -22 9
-40 22 -40 30 0 16 42 17 58 1 9 -9 12 -8 12 4 0 30 -68 39 -91 12z"/>
<path d="M15070 6384 c0 -34 4 -53 10 -49 6 3 10 28 10 56 0 27 -4 49 -10 49
-5 0 -10 -25 -10 -56z"/>
<path d="M12920 6345 c0 -8 7 -15 15 -15 8 0 15 7 15 15 0 8 -7 15 -15 15 -8
0 -15 -7 -15 -15z"/>
<path d="M18210 6040 c0 -63 3 -80 14 -80 11 0 16 15 18 53 l3 52 35 -53 c49
-73 65 -67 65 27 0 49 -4 76 -12 78 -8 3 -13 -13 -15 -49 l-3 -53 -35 52 c-20
30 -43 53 -52 53 -16 0 -18 -10 -18 -80z"/>
<path d="M19080 6057 c0 -49 4 -68 18 -80 26 -24 68 -21 86 5 18 25 22 138 6
138 -6 0 -10 -26 -10 -58 0 -62 -11 -82 -46 -82 -27 0 -34 17 -34 86 0 30 -4
54 -10 54 -6 0 -10 -28 -10 -63z"/>
<path d="M19230 6040 c0 -47 4 -80 10 -80 6 0 10 16 10 35 0 25 5 35 15 35 9
0 23 -16 32 -35 9 -19 20 -35 25 -35 11 0 10 7 -7 41 -14 26 -14 30 0 35 18 7
20 55 3 72 -7 7 -29 12 -50 12 l-38 0 0 -80z m75 30 c0 -20 -6 -26 -27 -28
-25 -3 -28 0 -28 28 0 28 3 31 28 28 21 -2 27 -8 27 -28z"/>
<path d="M19454 6073 c-9 -26 -23 -63 -30 -80 -8 -21 -9 -33 -3 -33 6 0 13 9
16 20 4 16 14 20 43 20 29 0 39 -4 43 -20 3 -11 10 -20 16 -20 13 0 -41 152
-56 157 -6 2 -19 -18 -29 -44z m43 -23 c11 -28 10 -30 -13 -30 -26 0 -27 3
-18 38 8 30 17 28 31 -8z"/>
<path d="M19923 6113 c-7 -2 -13 -9 -13 -14 0 -6 5 -7 10 -4 6 4 10 -20 10
-64 0 -41 4 -71 10 -71 6 0 10 33 10 80 0 44 -3 80 -7 79 -5 0 -14 -3 -20 -6z"/>
<path d="M18398 6069 c-10 -5 -18 -16 -18 -24 0 -12 5 -12 25 -3 19 9 28 9 37
0 9 -9 6 -12 -13 -12 -14 0 -34 -6 -45 -14 -32 -24 -7 -51 50 -53 l46 -2 0 44
c0 34 -5 47 -22 59 -26 18 -36 19 -60 5z m40 -75 c-9 -9 -21 -13 -27 -9 -16
10 -3 25 22 25 20 0 20 -1 5 -16z"/>
<path d="M18533 6073 c-33 -4 -33 -5 -33 -59 0 -41 4 -54 15 -54 10 0 15 10
15 33 0 41 13 62 34 54 11 -4 16 -19 16 -47 0 -28 4 -40 14 -40 10 0 16 14 18
43 2 34 7 42 23 42 16 0 21 -8 23 -42 2 -29 8 -43 18 -43 10 0 14 12 14 43 0
56 -28 86 -63 70 -15 -7 -29 -8 -38 -2 -8 5 -16 8 -19 7 -3 -1 -20 -3 -37 -5z"/>
<path d="M18750 6073 c-22 -8 -40 -34 -40 -58 0 -46 72 -74 100 -40 18 21 3
32 -22 16 -17 -11 -23 -10 -36 3 -15 15 -12 16 32 16 44 0 47 1 41 23 -4 12
-10 25 -14 28 -10 11 -45 18 -61 12z m40 -33 c0 -5 -12 -10 -26 -10 -14 0 -23
4 -19 10 3 6 15 10 26 10 10 0 19 -4 19 -10z"/>
<path d="M18851 6066 c-9 -10 -9 -16 -1 -21 17 -10 37 12 24 25 -8 8 -15 6
-23 -4z"/>
<path d="M19611 6070 c-8 -4 -20 -6 -28 -3 -10 4 -13 -8 -13 -51 0 -31 5 -56
10 -56 6 0 10 17 10 39 0 29 6 42 23 54 23 16 21 32 -2 17z"/>
<path d="M19678 6073 c-27 -4 -28 -7 -28 -59 0 -30 5 -54 10 -54 6 0 10 17 10
39 0 41 20 67 45 57 10 -4 15 -19 15 -51 0 -25 5 -45 10 -45 6 0 10 17 10 39
0 49 25 75 46 46 8 -10 14 -34 14 -52 0 -18 5 -33 10 -33 6 0 10 18 10 40 0
47 -31 86 -58 75 -20 -9 -31 -9 -52 -3 -8 3 -27 3 -42 1z"/>
<path d="M22210 6062 c0 -4 18 -26 40 -47 l40 -39 42 41 c23 23 39 46 35 49
-4 4 -23 -8 -42 -26 l-35 -34 -33 32 c-33 32 -47 39 -47 24z"/>
<path d="M18845 5981 c-3 -5 -1 -12 5 -16 12 -7 30 2 30 16 0 12 -27 12 -35 0z"/>
<path d="M2730 5515 c0 -33 2 -35 35 -35 35 0 51 20 18 20 -32 1 17 30 49 30
15 0 28 5 28 10 0 14 -56 13 -83 -1 -16 -9 -22 -9 -25 0 -8 24 -22 9 -22 -24z"/>
<path d="M2900 5501 c0 -17 5 -33 10 -36 6 -3 10 1 10 9 0 9 4 16 9 16 12 0
21 -26 21 -61 0 -16 5 -29 10 -29 14 0 13 56 -1 83 -9 16 -9 22 0 25 24 8 9
22 -24 22 -32 0 -35 -2 -35 -29z"/>
<path d="M3150 5420 c0 -82 3 -100 15 -100 11 0 15 11 15 40 0 33 3 40 20 40
13 0 27 -14 40 -40 11 -22 27 -40 35 -40 13 0 12 7 -5 40 l-21 41 21 26 c25
32 25 48 0 73 -15 15 -33 20 -70 20 l-50 0 0 -100z m104 58 c16 -26 -4 -52
-43 -56 -30 -3 -31 -2 -31 38 0 40 1 41 31 38 18 -2 37 -11 43 -20z"/>
<path d="M3650 5486 c0 -8 -8 -20 -17 -26 -17 -10 -17 -10 0 -20 12 -8 17 -24
17 -59 0 -49 9 -61 46 -61 21 0 17 17 -6 23 -16 4 -20 14 -20 51 0 39 3 46 20
46 11 0 20 5 20 10 0 6 -9 10 -20 10 -11 0 -20 6 -20 14 0 8 -4 18 -10 21 -5
3 -10 -1 -10 -9z"/>
<path d="M4040 5491 c0 -5 -8 -17 -17 -27 -13 -13 -14 -19 -5 -22 7 -2 12 -21
12 -47 0 -47 19 -75 51 -75 25 0 25 16 -1 23 -16 4 -20 14 -20 51 0 39 3 46
20 46 11 0 20 5 20 10 0 6 -9 10 -20 10 -11 0 -20 6 -20 14 0 8 -4 18 -10 21
-5 3 -10 2 -10 -4z"/>
<path d="M3337 5442 c-23 -25 -22 -85 1 -105 10 -10 30 -17 43 -17 29 0 68 25
56 36 -4 4 -13 2 -19 -4 -25 -25 -78 -8 -78 25 0 9 17 13 55 13 60 0 67 9 39
48 -19 28 -74 30 -97 4z m81 -24 c3 -15 -4 -18 -37 -18 -43 0 -50 7 -29 28 18
18 62 11 66 -10z"/>
<path d="M3502 5451 c-26 -16 -9 -53 28 -65 43 -14 54 -46 16 -46 -14 0 -28 5
-31 10 -3 6 -13 10 -22 10 -14 0 -14 -3 2 -20 22 -24 67 -26 89 -4 27 27 17
45 -36 67 -21 9 -38 21 -38 26 0 14 47 14 55 1 4 -6 11 -8 16 -4 6 4 6 11 -2
20 -13 15 -56 18 -77 5z"/>
<path d="M3760 5445 c-16 -20 -5 -32 14 -16 20 17 60 10 64 -11 3 -14 -4 -18
-32 -18 -19 0 -42 -7 -50 -16 -19 -18 -19 -20 -6 -45 12 -22 59 -26 79 -6 11
10 14 10 18 0 11 -30 23 -9 23 41 0 36 -5 60 -16 70 -20 20 -78 21 -94 1z m80
-68 c0 -19 -21 -37 -42 -37 -24 0 -35 29 -17 41 21 13 59 11 59 -4z"/>
<path d="M3910 5390 c0 -40 4 -70 10 -70 6 0 10 18 10 40 0 39 20 71 51 82 8
3 10 9 6 14 -4 4 -18 2 -30 -5 -15 -10 -22 -10 -25 -2 -2 6 -8 11 -13 11 -5 0
-9 -31 -9 -70z"/>
<path d="M2718 5444 c-12 -12 -9 -47 7 -78 18 -35 18 -36 0 -36 -8 0 -15 -4
-15 -10 0 -5 16 -10 35 -10 35 0 35 1 35 43 -1 38 -2 40 -14 24 -17 -22 -27
-10 -35 41 -3 19 -9 30 -13 26z"/>
<path d="M2885 5361 c-3 -6 1 -11 9 -11 9 0 16 -4 16 -8 0 -11 -46 -32 -70
-32 -11 0 -20 -4 -20 -10 0 -14 39 -12 75 4 26 11 32 10 43 -3 10 -13 12 -10
10 24 -3 35 -6 40 -30 43 -14 2 -29 -2 -33 -7z"/>
<path d="M6894 5181 c-34 -15 -54 -52 -54 -99 0 -59 41 -102 97 -102 38 0 83
27 83 50 0 16 -37 11 -44 -5 -9 -24 -72 -19 -90 7 -50 71 32 171 89 108 21
-23 45 -26 45 -7 0 37 -81 67 -126 48z"/>
<path d="M6388 5159 c-14 -8 -18 -23 -18 -64 0 -85 0 -85 101 -85 71 0 90 3
97 16 7 13 13 14 31 5 33 -18 41 -6 41 60 0 50 -3 59 -17 59 -10 0 -24 -4 -32
-9 -9 -6 -20 -2 -32 10 -15 15 -33 19 -86 19 -38 0 -76 -5 -85 -11z m150 -71
l-3 -53 -65 0 -65 0 -3 53 -3 52 71 0 71 0 -3 -52z m72 -3 c0 -27 -1 -28 -24
-19 -28 11 -17 40 17 43 4 1 7 -10 7 -24z"/>
<path d="M7068 5108 c-21 -21 -22 -23 -4 -26 10 -2 22 1 26 8 9 15 52 9 58 -7
2 -9 -7 -13 -25 -13 -16 0 -39 -7 -51 -16 -40 -27 -22 -74 28 -74 14 0 31 5
38 12 9 9 12 9 12 0 0 -7 7 -12 15 -12 24 0 21 112 -3 133 -26 24 -68 21 -94
-5z m77 -67 c5 -10 -21 -41 -34 -41 -18 0 -31 26 -19 38 14 14 45 16 53 3z"/>
<path d="M7220 5053 c0 -57 3 -73 15 -73 10 0 15 15 17 58 3 53 5 57 28 57 23
0 25 -4 30 -55 4 -41 9 -56 22 -58 14 -3 17 6 20 55 3 54 5 58 28 58 23 0 25
-4 30 -55 4 -40 9 -55 20 -55 12 0 15 13 14 59 -2 68 -21 92 -64 81 -14 -3
-32 -6 -40 -6 -8 1 -39 3 -67 4 l-53 4 0 -74z"/>
<path d="M7500 5110 c-26 -26 -27 -90 -2 -113 25 -22 75 -21 95 1 21 23 21 32
2 32 -8 0 -15 -4 -15 -9 0 -13 -35 -20 -54 -9 -9 5 -16 16 -16 23 0 11 14 15
55 15 63 0 71 15 30 55 -29 30 -68 32 -95 5z m80 -25 c11 -13 7 -15 -29 -15
-38 0 -50 8 -34 23 12 12 50 7 63 -8z"/>
<path d="M7650 5055 c0 -60 3 -75 15 -75 11 0 15 11 15 39 0 52 8 71 31 71 12
0 19 7 19 20 0 23 -4 24 -30 10 -13 -7 -21 -7 -25 0 -16 26 -25 3 -25 -65z"/>
<path d="M7779 5111 c-29 -24 -18 -39 15 -21 26 13 56 8 56 -10 0 -5 -12 -10
-26 -10 -41 0 -64 -18 -64 -49 0 -17 6 -31 16 -35 25 -10 59 -7 72 6 9 9 12 9
12 0 0 -7 7 -12 16 -12 25 0 15 117 -11 136 -26 19 -59 17 -86 -5z m71 -76 c0
-17 -29 -34 -47 -28 -31 11 -10 40 30 42 9 1 17 -6 17 -14z"/>
<path d="M6360 4580 c0 -64 3 -80 15 -80 11 0 15 12 15 52 l0 53 35 -53 c52
-76 65 -70 65 28 0 63 -3 80 -14 80 -11 0 -16 -15 -18 -52 l-3 -53 -34 53
c-48 76 -61 70 -61 -28z"/>
<path d="M7342 4637 c-29 -30 -30 -89 -2 -117 26 -26 81 -26 104 -1 10 11 13
22 8 25 -5 3 -15 -1 -22 -9 -15 -18 -61 -20 -78 -3 -15 15 -16 63 -2 89 13 24
57 25 82 2 26 -23 34 -9 9 16 -28 28 -72 27 -99 -2z"/>
<path d="M8200 4649 c-11 -8 -12 -12 -2 -16 8 -3 12 -27 12 -69 0 -36 4 -64
10 -64 6 0 10 33 10 80 0 81 -3 88 -30 69z"/>
<path d="M10360 4619 c0 -17 60 -79 76 -79 16 0 87 77 76 83 -5 4 -24 -9 -42
-28 l-34 -35 -38 37 c-24 23 -38 32 -38 22z"/>
<path d="M6530 4595 c-16 -19 -5 -34 12 -17 13 13 48 16 48 4 0 -4 -15 -12
-32 -17 -26 -8 -33 -15 -33 -35 0 -23 4 -25 48 -26 l47 -1 0 48 c0 33 -4 49
-16 53 -28 11 -61 6 -74 -9z m58 -57 c-7 -19 -38 -22 -38 -4 0 10 9 16 21 16
12 0 19 -5 17 -12z"/>
<path d="M6650 4555 c0 -42 3 -55 15 -55 11 0 15 11 15 40 0 28 5 43 16 47 21
8 34 -13 34 -54 0 -52 28 -43 32 10 2 29 8 42 18 42 10 0 16 -13 18 -42 2 -30
8 -43 18 -43 12 0 14 11 12 53 l-3 52 -87 2 -88 3 0 -55z"/>
<path d="M6872 4598 c-7 -7 -12 -26 -12 -43 0 -17 5 -36 12 -43 22 -22 88 -12
88 14 0 17 -12 18 -27 3 -13 -13 -43 -5 -43 11 0 5 18 10 40 10 41 0 47 8 30
41 -12 22 -68 27 -88 7z m63 -18 c4 -6 -5 -10 -20 -10 -15 0 -24 4 -20 10 3 6
12 10 20 10 8 0 17 -4 20 -10z"/>
<path d="M6990 4595 c0 -10 7 -15 18 -13 21 4 19 22 -2 26 -10 2 -16 -3 -16
-13z"/>
<path d="M7490 4595 c-10 -12 -10 -15 2 -15 8 0 19 5 26 12 10 10 16 8 29 -5
16 -16 16 -17 -8 -17 -34 0 -62 -22 -57 -46 3 -15 12 -19 51 -20 l47 -2 0 42
c0 23 -5 47 -12 54 -17 17 -63 15 -78 -3z m64 -59 c-7 -19 -27 -26 -44 -16
-18 11 -3 30 25 30 17 0 23 -4 19 -14z"/>
<path d="M7600 4554 c0 -41 4 -54 15 -54 11 0 15 12 15 44 0 31 5 46 16 50 26
10 34 -2 34 -50 0 -24 5 -44 10 -44 6 0 10 17 10 39 0 22 6 44 15 51 23 19 45
-5 45 -51 0 -22 5 -39 10 -39 14 0 12 86 -2 98 -7 5 -48 10 -90 10 l-78 -1 0
-53z"/>
<path d="M7816 4594 c-21 -21 -20 -57 2 -77 21 -19 67 -23 77 -6 10 16 -3 23
-18 10 -17 -13 -43 -6 -51 15 -4 11 5 14 39 14 37 0 45 3 45 18 0 41 -63 58
-94 26z m64 -9 c11 -13 7 -15 -25 -15 -32 0 -36 2 -25 15 7 8 18 15 25 15 7 0
18 -7 25 -15z"/>
<path d="M7930 4553 c0 -40 4 -53 15 -53 11 0 15 11 15 39 0 29 6 42 23 54 21
15 21 15 -15 14 l-38 -1 0 -53z"/>
<path d="M8025 4599 c-11 -17 3 -23 20 -9 16 13 45 7 45 -10 0 -5 -10 -10 -23
-10 -36 0 -61 -23 -53 -48 6 -19 14 -22 52 -20 l44 1 0 42 c0 22 -5 46 -12 53
-15 15 -64 16 -73 1z m65 -59 c0 -15 -35 -29 -49 -20 -8 4 -10 13 -7 19 9 14
56 15 56 1z"/>
<path d="M2992 4558 c-14 -14 -16 -68 -3 -68 5 0 11 12 13 28 3 25 6 27 53 27
l50 0 3 -102 3 -102 -35 -6 c-44 -9 -76 8 -76 40 0 14 -4 25 -10 25 -12 0 -13
-50 -1 -69 11 -18 93 -26 120 -12 19 11 21 19 21 119 0 71 -4 112 -12 120 -16
16 -110 16 -126 0z"/>
<path d="M3826 4543 c-3 -3 -6 -51 -6 -105 0 -80 3 -98 15 -98 11 0 15 11 15
38 l0 37 33 -39 c18 -21 39 -37 45 -35 8 3 1 18 -19 42 l-32 38 29 30 c35 37
11 39 -28 2 l-28 -27 0 57 c0 52 -9 75 -24 60z"/>
<path d="M3310 4440 l0 -100 48 0 c78 0 117 46 77 90 -14 15 -14 18 0 30 42
35 1 80 -73 80 l-52 0 0 -100z m108 51 c4 -28 -12 -41 -50 -41 -25 0 -28 3
-28 36 0 35 1 35 38 32 30 -2 38 -7 40 -27z m3 -77 c20 -24 -1 -48 -45 -52
-35 -3 -36 -2 -36 32 0 34 2 36 34 36 18 0 39 -7 47 -16z"/>
<path d="M6990 4515 c0 -10 7 -15 18 -13 21 4 19 22 -2 26 -10 2 -16 -3 -16
-13z"/>
<path d="M2895 4470 l-29 -30 24 -25 c23 -24 50 -33 50 -17 0 4 -5 13 -12 20
-9 9 3 12 55 12 38 0 67 4 67 10 0 6 -28 10 -65 10 -60 0 -80 9 -55 25 12 7
13 25 2 25 -5 0 -21 -13 -37 -30z"/>
<path d="M3504 4466 c-27 -20 -10 -32 22 -16 18 10 30 11 42 3 27 -16 20 -28
-18 -31 -43 -4 -60 -18 -60 -47 0 -34 61 -50 88 -23 9 9 12 9 12 0 0 -7 5 -12
10 -12 14 0 12 114 -2 128 -16 16 -70 15 -94 -2z m76 -65 c0 -24 -14 -41 -35
-41 -30 0 -41 16 -25 35 14 16 60 21 60 6z"/>
<path d="M3667 4462 c-25 -28 -22 -87 5 -106 31 -22 71 -20 93 4 23 25 12 39
-13 17 -25 -22 -45 -21 -67 3 -15 16 -17 26 -9 48 11 31 37 39 70 21 30 -15
40 -7 19 15 -22 22 -78 21 -98 -2z"/>
<path d="M9033 442 c-13 -2 -23 -8 -23 -13 0 -5 1318 -9 3422 -9 2384 0 3419
3 3412 10 -8 8 -1054 12 -3400 13 -1864 1 -3399 1 -3411 -1z"/>
</g>
</svg>
